<svg xmlns="http://www.w3.org/2000/svg" width="900" height="1040" viewBox="0 0 900 1040"><defs><radialGradient id="bg" cx="50%" cy="42%" r="70%"><stop offset="0%" stop-color="#fdf9f5"/><stop offset="100%" stop-color="#f7efe9"/></radialGradient></defs><rect width="900" height="1040" fill="url(#bg)"/><ellipse cx="450.0" cy="496.6" rx="414.0" ry="312.0" fill="#e7d9d0"/><ellipse cx="450.0" cy="477.88" rx="380.88" ry="280.8" fill="#efe4dc"/><circle cx="174.92000000000002" cy="388.96000000000004" r="119.60000000000001" fill="#26302a"/><circle cx="174.92000000000002" cy="388.96000000000004" r="107.64000000000001" fill="#fbfaf6"/><circle cx="174.92000000000002" cy="388.96000000000004" r="107.64000000000001" fill="none" stroke="#ece7dd" stroke-width="4.784000000000001"/><circle cx="102.8" cy="411.3" r="1.5" fill="#e7e0d2"/><circle cx="103.6" cy="404.7" r="1.3" fill="#e7e0d2"/><circle cx="204.2" cy="456.1" r="1.3" fill="#e7e0d2"/><circle cx="188.9" cy="337.8" r="1.0" fill="#e7e0d2"/><circle cx="248.7" cy="436.2" r="1.4" fill="#e7e0d2"/><circle cx="267.6" cy="413.9" r="1.6" fill="#e7e0d2"/><circle cx="130.4" cy="324.6" r="0.9" fill="#e7e0d2"/><circle cx="248.6" cy="395.9" r="0.8" fill="#e7e0d2"/><circle cx="197.0" cy="444.9" r="0.8" fill="#e7e0d2"/><circle cx="107.0" cy="404.7" r="1.5" fill="#e7e0d2"/><circle cx="96.0" cy="379.6" r="1.2" fill="#e7e0d2"/><circle cx="137.9" cy="328.9" r="1.0" fill="#e7e0d2"/><circle cx="271.6" cy="387.2" r="1.5" fill="#e7e0d2"/><circle cx="158.1" cy="327.5" r="1.0" fill="#e7e0d2"/><circle cx="174.92000000000002" cy="388.96000000000004" r="62.19200000000001" fill="#f0936a"/><circle cx="174.92000000000002" cy="388.96000000000004" r="62.19200000000001" fill="none" stroke="rgba(0,0,0,0.10)" stroke-width="3.588"/><circle cx="202.1" cy="370.5" r="7.2" fill="#e8762e"/><circle cx="179.3" cy="345.9" r="7.2" fill="#e8762e"/><circle cx="173.1" cy="419.3" r="7.2" fill="#e8762e"/><circle cx="209.4" cy="365.4" r="7.2" fill="#e8762e"/><circle cx="167.6" cy="385.4" r="7.2" fill="#e8762e"/><circle cx="134.6" cy="414.1" r="7.2" fill="#e8762e"/><circle cx="187.1" cy="398.2" r="7.2" fill="#e8762e"/><circle cx="312.46000000000004" cy="388.96000000000004" r="119.60000000000001" fill="#26302a"/><circle cx="312.46000000000004" cy="388.96000000000004" r="107.64000000000001" fill="#fbfaf6"/><circle cx="312.46000000000004" cy="388.96000000000004" r="107.64000000000001" fill="none" stroke="#ece7dd" stroke-width="4.784000000000001"/><circle cx="233.2" cy="401.9" r="1.3" fill="#e7e0d2"/><circle cx="343.1" cy="427.2" r="1.1" fill="#e7e0d2"/><circle cx="299.3" cy="475.7" r="1.4" fill="#e7e0d2"/><circle cx="251.7" cy="344.2" r="1.3" fill="#e7e0d2"/><circle cx="355.1" cy="444.1" r="0.9" fill="#e7e0d2"/><circle cx="355.0" cy="360.3" r="1.5" fill="#e7e0d2"/><circle cx="385.4" cy="425.9" r="1.1" fill="#e7e0d2"/><circle cx="238.8" cy="439.4" r="0.8" fill="#e7e0d2"/><circle cx="398.5" cy="423.5" r="1.2" fill="#e7e0d2"/><circle cx="393.4" cy="441.0" r="1.6" fill="#e7e0d2"/><circle cx="364.9" cy="433.7" r="0.9" fill="#e7e0d2"/><circle cx="282.5" cy="461.5" r="0.9" fill="#e7e0d2"/><circle cx="295.7" cy="340.9" r="0.9" fill="#e7e0d2"/><circle cx="339.5" cy="326.7" r="1.1" fill="#e7e0d2"/><circle cx="312.46000000000004" cy="388.96000000000004" r="62.19200000000001" fill="#8fb46a"/><circle cx="312.46000000000004" cy="388.96000000000004" r="62.19200000000001" fill="none" stroke="rgba(0,0,0,0.10)" stroke-width="3.588"/><circle cx="450.0" cy="388.96000000000004" r="119.60000000000001" fill="#26302a"/><circle cx="450.0" cy="388.96000000000004" r="107.64000000000001" fill="#fbfaf6"/><circle cx="450.0" cy="388.96000000000004" r="107.64000000000001" fill="none" stroke="#ece7dd" stroke-width="4.784000000000001"/><circle cx="445.4" cy="470.5" r="1.3" fill="#e7e0d2"/><circle cx="483.4" cy="342.3" r="1.0" fill="#e7e0d2"/><circle cx="485.8" cy="436.3" r="1.4" fill="#e7e0d2"/><circle cx="500.7" cy="443.1" r="1.0" fill="#e7e0d2"/><circle cx="430.9" cy="455.6" r="1.5" fill="#e7e0d2"/><circle cx="411.8" cy="358.1" r="1.0" fill="#e7e0d2"/><circle cx="504.8" cy="461.1" r="1.4" fill="#e7e0d2"/><circle cx="480.3" cy="305.8" r="1.4" fill="#e7e0d2"/><circle cx="532.4" cy="361.5" r="1.0" fill="#e7e0d2"/><circle cx="492.2" cy="330.6" r="1.4" fill="#e7e0d2"/><circle cx="386.3" cy="361.9" r="1.1" fill="#e7e0d2"/><circle cx="392.5" cy="416.2" r="0.9" fill="#e7e0d2"/><circle cx="486.7" cy="310.0" r="1.6" fill="#e7e0d2"/><circle cx="422.5" cy="318.9" r="1.4" fill="#e7e0d2"/><circle cx="450.0" cy="388.96000000000004" r="62.19200000000001" fill="#ef9d6e"/><circle cx="450.0" cy="388.96000000000004" r="62.19200000000001" fill="none" stroke="rgba(0,0,0,0.10)" stroke-width="3.588"/><circle cx="587.54" cy="388.96000000000004" r="119.60000000000001" fill="#26302a"/><circle cx="587.54" cy="388.96000000000004" r="107.64000000000001" fill="#fbfaf6"/><circle cx="587.54" cy="388.96000000000004" r="107.64000000000001" fill="none" stroke="#ece7dd" stroke-width="4.784000000000001"/><circle cx="652.1" cy="440.2" r="1.3" fill="#e7e0d2"/><circle cx="644.8" cy="366.2" r="1.0" fill="#e7e0d2"/><circle cx="579.3" cy="309.0" r="1.0" fill="#e7e0d2"/><circle cx="560.2" cy="327.1" r="1.4" fill="#e7e0d2"/><circle cx="631.2" cy="429.1" r="1.5" fill="#e7e0d2"/><circle cx="549.3" cy="436.5" r="1.4" fill="#e7e0d2"/><circle cx="549.8" cy="348.0" r="1.2" fill="#e7e0d2"/><circle cx="558.4" cy="340.6" r="1.3" fill="#e7e0d2"/><circle cx="633.9" cy="434.2" r="0.9" fill="#e7e0d2"/><circle cx="614.7" cy="480.9" r="1.1" fill="#e7e0d2"/><circle cx="657.1" cy="384.6" r="1.3" fill="#e7e0d2"/><circle cx="644.3" cy="330.2" r="0.9" fill="#e7e0d2"/><circle cx="520.4" cy="347.1" r="0.9" fill="#e7e0d2"/><circle cx="662.8" cy="439.8" r="1.2" fill="#e7e0d2"/><circle cx="587.54" cy="388.96000000000004" r="62.19200000000001" fill="#7c4a2c"/><circle cx="587.54" cy="388.96000000000004" r="62.19200000000001" fill="none" stroke="rgba(0,0,0,0.10)" stroke-width="3.588"/><circle cx="627.9" cy="368.2" r="7.2" fill="#e8762e"/><circle cx="590.7" cy="386.5" r="7.2" fill="#e8762e"/><circle cx="570.5" cy="377.9" r="7.2" fill="#e8762e"/><circle cx="581.4" cy="387.8" r="7.2" fill="#e8762e"/><circle cx="595.1" cy="408.8" r="7.2" fill="#e8762e"/><circle cx="591.5" cy="410.4" r="7.2" fill="#e8762e"/><circle cx="591.6" cy="389.6" r="7.2" fill="#e8762e"/><circle cx="725.0799999999999" cy="388.96000000000004" r="119.60000000000001" fill="#26302a"/><circle cx="725.0799999999999" cy="388.96000000000004" r="107.64000000000001" fill="#fbfaf6"/><circle cx="725.0799999999999" cy="388.96000000000004" r="107.64000000000001" fill="none" stroke="#ece7dd" stroke-width="4.784000000000001"/><circle cx="772.9" cy="378.2" r="1.4" fill="#e7e0d2"/><circle cx="777.7" cy="469.5" r="0.8" fill="#e7e0d2"/><circle cx="784.1" cy="332.9" r="1.5" fill="#e7e0d2"/><circle cx="785.1" cy="388.7" r="1.1" fill="#e7e0d2"/><circle cx="708.8" cy="329.1" r="1.0" fill="#e7e0d2"/><circle cx="737.2" cy="478.1" r="1.5" fill="#e7e0d2"/><circle cx="742.4" cy="332.3" r="1.5" fill="#e7e0d2"/><circle cx="665.6" cy="384.8" r="1.2" fill="#e7e0d2"/><circle cx="679.3" cy="414.2" r="1.3" fill="#e7e0d2"/><circle cx="676.7" cy="447.6" r="1.5" fill="#e7e0d2"/><circle cx="683.4" cy="335.1" r="1.5" fill="#e7e0d2"/><circle cx="797.2" cy="386.5" r="1.6" fill="#e7e0d2"/><circle cx="779.9" cy="395.4" r="0.9" fill="#e7e0d2"/><circle cx="800.7" cy="357.7" r="1.4" fill="#e7e0d2"/><circle cx="725.0799999999999" cy="388.96000000000004" r="62.19200000000001" fill="#f3b6a0"/><circle cx="725.0799999999999" cy="388.96000000000004" r="62.19200000000001" fill="none" stroke="rgba(0,0,0,0.10)" stroke-width="3.588"/><circle cx="243.69" cy="538.46" r="119.60000000000001" fill="#26302a"/><circle cx="243.69" cy="538.46" r="107.64000000000001" fill="#fbfaf6"/><circle cx="243.69" cy="538.46" r="107.64000000000001" fill="none" stroke="#ece7dd" stroke-width="4.784000000000001"/><circle cx="197.5" cy="593.3" r="1.1" fill="#e7e0d2"/><circle cx="179.2" cy="561.0" r="1.3" fill="#e7e0d2"/><circle cx="239.4" cy="617.5" r="0.8" fill="#e7e0d2"/><circle cx="223.0" cy="599.7" r="0.9" fill="#e7e0d2"/><circle cx="240.9" cy="475.1" r="1.4" fill="#e7e0d2"/><circle cx="302.1" cy="521.8" r="1.5" fill="#e7e0d2"/><circle cx="272.1" cy="462.9" r="0.8" fill="#e7e0d2"/><circle cx="167.8" cy="559.7" r="1.0" fill="#e7e0d2"/><circle cx="253.9" cy="601.1" r="1.0" fill="#e7e0d2"/><circle cx="258.9" cy="475.0" r="1.1" fill="#e7e0d2"/><circle cx="184.8" cy="464.7" r="1.0" fill="#e7e0d2"/><circle cx="335.7" cy="564.5" r="1.5" fill="#e7e0d2"/><circle cx="262.0" cy="467.0" r="1.0" fill="#e7e0d2"/><circle cx="279.4" cy="590.6" r="1.2" fill="#e7e0d2"/><circle cx="243.69" cy="538.46" r="62.19200000000001" fill="#f2c971"/><circle cx="243.69" cy="538.46" r="62.19200000000001" fill="none" stroke="rgba(0,0,0,0.10)" stroke-width="3.588"/><circle cx="381.23" cy="538.46" r="119.60000000000001" fill="#26302a"/><circle cx="381.23" cy="538.46" r="107.64000000000001" fill="#fbfaf6"/><circle cx="381.23" cy="538.46" r="107.64000000000001" fill="none" stroke="#ece7dd" stroke-width="4.784000000000001"/><circle cx="294.5" cy="526.6" r="1.6" fill="#e7e0d2"/><circle cx="360.2" cy="621.4" r="1.4" fill="#e7e0d2"/><circle cx="352.7" cy="492.9" r="0.8" fill="#e7e0d2"/><circle cx="318.1" cy="594.8" r="1.0" fill="#e7e0d2"/><circle cx="317.4" cy="537.9" r="1.5" fill="#e7e0d2"/><circle cx="445.1" cy="515.3" r="1.6" fill="#e7e0d2"/><circle cx="462.4" cy="571.9" r="1.5" fill="#e7e0d2"/><circle cx="429.4" cy="605.6" r="1.2" fill="#e7e0d2"/><circle cx="437.5" cy="522.0" r="1.2" fill="#e7e0d2"/><circle cx="439.8" cy="484.9" r="1.0" fill="#e7e0d2"/><circle cx="463.0" cy="584.7" r="1.2" fill="#e7e0d2"/><circle cx="436.5" cy="537.0" r="1.4" fill="#e7e0d2"/><circle cx="417.1" cy="452.6" r="0.8" fill="#e7e0d2"/><circle cx="345.9" cy="575.2" r="1.4" fill="#e7e0d2"/><circle cx="381.23" cy="538.46" r="62.19200000000001" fill="#f0936a"/><circle cx="381.23" cy="538.46" r="62.19200000000001" fill="none" stroke="rgba(0,0,0,0.10)" stroke-width="3.588"/><circle cx="381.0" cy="528.8" r="7.2" fill="#e8762e"/><circle cx="389.2" cy="566.1" r="7.2" fill="#e8762e"/><circle cx="416.0" cy="551.4" r="7.2" fill="#e8762e"/><circle cx="381.4" cy="536.5" r="7.2" fill="#e8762e"/><circle cx="371.4" cy="516.5" r="7.2" fill="#e8762e"/><circle cx="351.1" cy="504.2" r="7.2" fill="#e8762e"/><circle cx="400.7" cy="536.8" r="7.2" fill="#e8762e"/><circle cx="518.77" cy="538.46" r="119.60000000000001" fill="#26302a"/><circle cx="518.77" cy="538.46" r="107.64000000000001" fill="#fbfaf6"/><circle cx="518.77" cy="538.46" r="107.64000000000001" fill="none" stroke="#ece7dd" stroke-width="4.784000000000001"/><circle cx="552.5" cy="611.5" r="1.1" fill="#e7e0d2"/><circle cx="542.0" cy="606.8" r="1.2" fill="#e7e0d2"/><circle cx="448.7" cy="547.5" r="1.0" fill="#e7e0d2"/><circle cx="516.9" cy="620.4" r="1.1" fill="#e7e0d2"/><circle cx="479.2" cy="461.5" r="1.5" fill="#e7e0d2"/><circle cx="574.8" cy="517.7" r="1.0" fill="#e7e0d2"/><circle cx="511.3" cy="462.5" r="1.0" fill="#e7e0d2"/><circle cx="478.7" cy="457.0" r="1.5" fill="#e7e0d2"/><circle cx="532.1" cy="599.9" r="0.8" fill="#e7e0d2"/><circle cx="577.2" cy="529.3" r="1.4" fill="#e7e0d2"/><circle cx="443.7" cy="520.4" r="1.2" fill="#e7e0d2"/><circle cx="554.0" cy="469.4" r="1.0" fill="#e7e0d2"/><circle cx="572.5" cy="585.7" r="1.5" fill="#e7e0d2"/><circle cx="568.7" cy="603.0" r="1.3" fill="#e7e0d2"/><circle cx="518.77" cy="538.46" r="62.19200000000001" fill="#8fb46a"/><circle cx="518.77" cy="538.46" r="62.19200000000001" fill="none" stroke="rgba(0,0,0,0.10)" stroke-width="3.588"/><circle cx="656.31" cy="538.46" r="119.60000000000001" fill="#26302a"/><circle cx="656.31" cy="538.46" r="107.64000000000001" fill="#fbfaf6"/><circle cx="656.31" cy="538.46" r="107.64000000000001" fill="none" stroke="#ece7dd" stroke-width="4.784000000000001"/><circle cx="617.9" cy="461.0" r="1.2" fill="#e7e0d2"/><circle cx="589.0" cy="533.7" r="1.6" fill="#e7e0d2"/><circle cx="642.7" cy="592.4" r="1.0" fill="#e7e0d2"/><circle cx="652.1" cy="602.6" r="1.0" fill="#e7e0d2"/><circle cx="706.4" cy="578.6" r="1.0" fill="#e7e0d2"/><circle cx="603.5" cy="514.0" r="0.9" fill="#e7e0d2"/><circle cx="678.3" cy="609.9" r="1.1" fill="#e7e0d2"/><circle cx="647.1" cy="451.6" r="1.1" fill="#e7e0d2"/><circle cx="724.2" cy="587.4" r="1.4" fill="#e7e0d2"/><circle cx="592.6" cy="587.3" r="1.0" fill="#e7e0d2"/><circle cx="732.6" cy="493.0" r="1.4" fill="#e7e0d2"/><circle cx="713.5" cy="521.2" r="1.2" fill="#e7e0d2"/><circle cx="645.9" cy="451.8" r="1.1" fill="#e7e0d2"/><circle cx="707.1" cy="598.7" r="0.9" fill="#e7e0d2"/><circle cx="656.31" cy="538.46" r="62.19200000000001" fill="#ef9d6e"/><circle cx="656.31" cy="538.46" r="62.19200000000001" fill="none" stroke="rgba(0,0,0,0.10)" stroke-width="3.588"/><text x="450.0" y="936.0" font-family="Outfit,Arial,sans-serif" font-size="52.0" font-weight="700" fill="#1a1518" text-anchor="middle">Renua</text><text x="450.0" y="993.1999999999999" font-family="Outfit,Arial,sans-serif" font-size="33.28" letter-spacing="2" fill="#d32b2b" text-anchor="middle">РОЛЛЫ РУЧНОЙ ЛЕПКИ</text></svg>