<svg xmlns="http://www.w3.org/2000/svg" width="640" height="480" viewBox="0 0 640 480"><defs><radialGradient id="bg" cx="50%" cy="42%" r="70%"><stop offset="0%" stop-color="#fdf9f5"/><stop offset="100%" stop-color="#f7efe9"/></radialGradient></defs><rect width="640" height="480" fill="url(#bg)"/><ellipse cx="320.0" cy="232.32" rx="268.8" ry="124.80000000000001" fill="#e7d9d0"/><ellipse cx="320.0" cy="224.832" rx="247.29600000000002" ry="112.32000000000001" fill="#efe4dc"/><circle cx="209.60000000000002" cy="215.424" r="76.8" fill="#26302a"/><circle cx="209.60000000000002" cy="215.424" r="69.12" fill="#fbfaf6"/><circle cx="209.60000000000002" cy="215.424" r="69.12" fill="none" stroke="#ece7dd" stroke-width="3.072"/><circle cx="189.1" cy="191.0" r="1.0" fill="#e7e0d2"/><circle cx="218.7" cy="268.7" r="1.3" fill="#e7e0d2"/><circle cx="235.9" cy="194.2" r="1.1" fill="#e7e0d2"/><circle cx="246.8" cy="222.5" r="1.2" fill="#e7e0d2"/><circle cx="246.4" cy="221.6" r="1.3" fill="#e7e0d2"/><circle cx="173.1" cy="204.9" r="1.3" fill="#e7e0d2"/><circle cx="220.9" cy="186.2" r="1.4" fill="#e7e0d2"/><circle cx="196.2" cy="176.0" r="0.9" fill="#e7e0d2"/><circle cx="249.6" cy="204.3" r="0.9" fill="#e7e0d2"/><circle cx="256.8" cy="248.2" r="1.3" fill="#e7e0d2"/><circle cx="228.4" cy="165.0" r="1.2" fill="#e7e0d2"/><circle cx="251.8" cy="208.1" r="1.2" fill="#e7e0d2"/><circle cx="233.6" cy="171.2" r="1.5" fill="#e7e0d2"/><circle cx="162.7" cy="190.7" r="0.8" fill="#e7e0d2"/><circle cx="209.60000000000002" cy="215.424" r="39.936" fill="#7c4a2c"/><circle cx="209.60000000000002" cy="215.424" r="39.936" fill="none" stroke="rgba(0,0,0,0.10)" stroke-width="2.304"/><ellipse cx="209.60000000000002" cy="211.584" rx="47.616" ry="23.04" fill="#5d3320" opacity="0.92"/><circle cx="320.0" cy="201.6" r="76.8" fill="#26302a"/><circle cx="320.0" cy="201.6" r="69.12" fill="#fbfaf6"/><circle cx="320.0" cy="201.6" r="69.12" fill="none" stroke="#ece7dd" stroke-width="3.072"/><circle cx="371.2" cy="214.2" r="0.9" fill="#e7e0d2"/><circle cx="269.5" cy="213.8" r="1.4" fill="#e7e0d2"/><circle cx="275.4" cy="215.2" r="0.8" fill="#e7e0d2"/><circle cx="281.1" cy="219.2" r="1.5" fill="#e7e0d2"/><circle cx="267.7" cy="185.8" r="1.1" fill="#e7e0d2"/><circle cx="345.8" cy="253.1" r="1.5" fill="#e7e0d2"/><circle cx="295.8" cy="225.6" r="1.2" fill="#e7e0d2"/><circle cx="264.9" cy="203.1" r="1.3" fill="#e7e0d2"/><circle cx="271.0" cy="199.6" r="1.1" fill="#e7e0d2"/><circle cx="351.5" cy="211.6" r="1.6" fill="#e7e0d2"/><circle cx="341.3" cy="167.4" r="1.5" fill="#e7e0d2"/><circle cx="286.0" cy="196.9" r="1.5" fill="#e7e0d2"/><circle cx="268.1" cy="171.3" r="1.3" fill="#e7e0d2"/><circle cx="361.9" cy="229.7" r="1.4" fill="#e7e0d2"/><circle cx="320.0" cy="201.6" r="39.936" fill="#7c4a2c"/><circle cx="320.0" cy="201.6" r="39.936" fill="none" stroke="rgba(0,0,0,0.10)" stroke-width="2.304"/><ellipse cx="320.0" cy="197.76" rx="47.616" ry="23.04" fill="#5d3320" opacity="0.92"/><circle cx="430.4" cy="215.424" r="76.8" fill="#26302a"/><circle cx="430.4" cy="215.424" r="69.12" fill="#fbfaf6"/><circle cx="430.4" cy="215.424" r="69.12" fill="none" stroke="#ece7dd" stroke-width="3.072"/><circle cx="390.2" cy="241.5" r="1.5" fill="#e7e0d2"/><circle cx="447.4" cy="249.5" r="0.8" fill="#e7e0d2"/><circle cx="453.7" cy="236.4" r="0.9" fill="#e7e0d2"/><circle cx="368.7" cy="210.2" r="1.4" fill="#e7e0d2"/><circle cx="398.9" cy="245.7" r="1.4" fill="#e7e0d2"/><circle cx="415.1" cy="245.1" r="1.5" fill="#e7e0d2"/><circle cx="404.7" cy="192.2" r="0.9" fill="#e7e0d2"/><circle cx="480.9" cy="249.5" r="0.9" fill="#e7e0d2"/><circle cx="387.1" cy="172.1" r="0.8" fill="#e7e0d2"/><circle cx="395.8" cy="245.7" r="1.5" fill="#e7e0d2"/><circle cx="445.2" cy="251.7" r="1.0" fill="#e7e0d2"/><circle cx="480.0" cy="231.3" r="1.5" fill="#e7e0d2"/><circle cx="400.7" cy="228.0" r="1.4" fill="#e7e0d2"/><circle cx="426.1" cy="164.2" r="1.1" fill="#e7e0d2"/><circle cx="430.4" cy="215.424" r="39.936" fill="#7c4a2c"/><circle cx="430.4" cy="215.424" r="39.936" fill="none" stroke="rgba(0,0,0,0.10)" stroke-width="2.304"/><ellipse cx="430.4" cy="211.584" rx="47.616" ry="23.04" fill="#5d3320" opacity="0.92"/><text x="320.0" y="432.0" font-family="Outfit,Arial,sans-serif" font-size="24.0" font-weight="700" fill="#1a1518" text-anchor="middle">Угорь унаги</text><text x="320.0" y="458.4" font-family="Outfit,Arial,sans-serif" font-size="15.36" letter-spacing="2" fill="#d32b2b" text-anchor="middle">РОЛЛЫ</text></svg>