<svg xmlns="http://www.w3.org/2000/svg" width="640" height="480" viewBox="0 0 640 480"><defs><radialGradient id="bg" cx="50%" cy="42%" r="70%"><stop offset="0%" stop-color="#fdf9f5"/><stop offset="100%" stop-color="#f7efe9"/></radialGradient></defs><rect width="640" height="480" fill="url(#bg)"/><ellipse cx="320.0" cy="229.2" rx="294.40000000000003" ry="144.0" fill="#e7d9d0"/><ellipse cx="320.0" cy="220.56" rx="270.84800000000007" ry="129.6" fill="#efe4dc"/><circle cx="193.04000000000002" cy="179.51999999999998" r="55.2" fill="#26302a"/><circle cx="193.04000000000002" cy="179.51999999999998" r="49.68000000000001" fill="#fbfaf6"/><circle cx="193.04000000000002" cy="179.51999999999998" r="49.68000000000001" fill="none" stroke="#ece7dd" stroke-width="2.208"/><circle cx="188.4" cy="213.7" r="1.4" fill="#e7e0d2"/><circle cx="222.6" cy="171.6" r="1.2" fill="#e7e0d2"/><circle cx="168.6" cy="204.1" r="1.5" fill="#e7e0d2"/><circle cx="236.1" cy="177.4" r="1.6" fill="#e7e0d2"/><circle cx="219.2" cy="188.8" r="1.6" fill="#e7e0d2"/><circle cx="169.4" cy="169.7" r="1.3" fill="#e7e0d2"/><circle cx="218.3" cy="168.6" r="1.1" fill="#e7e0d2"/><circle cx="213.6" cy="218.6" r="1.0" fill="#e7e0d2"/><circle cx="191.8" cy="203.6" r="0.9" fill="#e7e0d2"/><circle cx="215.4" cy="181.8" r="1.2" fill="#e7e0d2"/><circle cx="184.0" cy="208.7" r="1.3" fill="#e7e0d2"/><circle cx="177.7" cy="215.3" r="1.0" fill="#e7e0d2"/><circle cx="162.4" cy="180.1" r="1.4" fill="#e7e0d2"/><circle cx="165.8" cy="188.2" r="1.5" fill="#e7e0d2"/><circle cx="193.04000000000002" cy="179.51999999999998" r="28.704000000000004" fill="#f2c971"/><circle cx="193.04000000000002" cy="179.51999999999998" r="28.704000000000004" fill="none" stroke="rgba(0,0,0,0.10)" stroke-width="1.656"/><circle cx="204.7" cy="186.1" r="3.3" fill="#e8762e"/><circle cx="196.1" cy="179.5" r="3.3" fill="#e8762e"/><circle cx="195.0" cy="176.9" r="3.3" fill="#e8762e"/><circle cx="176.0" cy="189.5" r="3.3" fill="#e8762e"/><circle cx="188.4" cy="193.8" r="3.3" fill="#e8762e"/><circle cx="209.9" cy="188.3" r="3.3" fill="#e8762e"/><circle cx="193.0" cy="179.5" r="3.3" fill="#e8762e"/><circle cx="256.52" cy="179.51999999999998" r="55.2" fill="#26302a"/><circle cx="256.52" cy="179.51999999999998" r="49.68000000000001" fill="#fbfaf6"/><circle cx="256.52" cy="179.51999999999998" r="49.68000000000001" fill="none" stroke="#ece7dd" stroke-width="2.208"/><circle cx="224.1" cy="178.4" r="1.2" fill="#e7e0d2"/><circle cx="225.9" cy="206.8" r="0.9" fill="#e7e0d2"/><circle cx="219.0" cy="191.7" r="1.3" fill="#e7e0d2"/><circle cx="280.4" cy="163.4" r="1.1" fill="#e7e0d2"/><circle cx="248.0" cy="203.4" r="0.9" fill="#e7e0d2"/><circle cx="227.6" cy="177.0" r="1.3" fill="#e7e0d2"/><circle cx="299.8" cy="168.6" r="1.4" fill="#e7e0d2"/><circle cx="241.5" cy="206.6" r="1.5" fill="#e7e0d2"/><circle cx="260.7" cy="220.1" r="1.0" fill="#e7e0d2"/><circle cx="223.6" cy="190.8" r="1.6" fill="#e7e0d2"/><circle cx="251.7" cy="138.7" r="1.1" fill="#e7e0d2"/><circle cx="232.1" cy="213.5" r="1.3" fill="#e7e0d2"/><circle cx="251.8" cy="155.4" r="0.8" fill="#e7e0d2"/><circle cx="230.3" cy="192.4" r="1.0" fill="#e7e0d2"/><circle cx="256.52" cy="179.51999999999998" r="28.704000000000004" fill="#f0936a"/><circle cx="256.52" cy="179.51999999999998" r="28.704000000000004" fill="none" stroke="rgba(0,0,0,0.10)" stroke-width="1.656"/><circle cx="320.0" cy="179.51999999999998" r="55.2" fill="#26302a"/><circle cx="320.0" cy="179.51999999999998" r="49.68000000000001" fill="#fbfaf6"/><circle cx="320.0" cy="179.51999999999998" r="49.68000000000001" fill="none" stroke="#ece7dd" stroke-width="2.208"/><circle cx="340.5" cy="205.8" r="1.2" fill="#e7e0d2"/><circle cx="359.7" cy="171.5" r="1.4" fill="#e7e0d2"/><circle cx="308.9" cy="156.1" r="1.5" fill="#e7e0d2"/><circle cx="287.7" cy="193.9" r="0.9" fill="#e7e0d2"/><circle cx="305.6" cy="218.1" r="0.9" fill="#e7e0d2"/><circle cx="345.5" cy="194.7" r="1.1" fill="#e7e0d2"/><circle cx="286.9" cy="181.4" r="0.9" fill="#e7e0d2"/><circle cx="350.3" cy="179.8" r="1.0" fill="#e7e0d2"/><circle cx="286.1" cy="171.2" r="1.4" fill="#e7e0d2"/><circle cx="291.2" cy="190.7" r="1.3" fill="#e7e0d2"/><circle cx="350.9" cy="158.9" r="0.8" fill="#e7e0d2"/><circle cx="306.7" cy="221.4" r="1.6" fill="#e7e0d2"/><circle cx="311.9" cy="205.4" r="0.8" fill="#e7e0d2"/><circle cx="337.1" cy="196.3" r="1.6" fill="#e7e0d2"/><circle cx="320.0" cy="179.51999999999998" r="28.704000000000004" fill="#f2c971"/><circle cx="320.0" cy="179.51999999999998" r="28.704000000000004" fill="none" stroke="rgba(0,0,0,0.10)" stroke-width="1.656"/><circle cx="383.48" cy="179.51999999999998" r="55.2" fill="#26302a"/><circle cx="383.48" cy="179.51999999999998" r="49.68000000000001" fill="#fbfaf6"/><circle cx="383.48" cy="179.51999999999998" r="49.68000000000001" fill="none" stroke="#ece7dd" stroke-width="2.208"/><circle cx="342.0" cy="180.6" r="0.9" fill="#e7e0d2"/><circle cx="366.6" cy="195.8" r="1.3" fill="#e7e0d2"/><circle cx="394.4" cy="206.7" r="1.5" fill="#e7e0d2"/><circle cx="407.8" cy="188.2" r="1.0" fill="#e7e0d2"/><circle cx="395.8" cy="148.9" r="1.3" fill="#e7e0d2"/><circle cx="405.8" cy="163.4" r="1.2" fill="#e7e0d2"/><circle cx="403.4" cy="214.0" r="0.8" fill="#e7e0d2"/><circle cx="384.7" cy="149.4" r="1.3" fill="#e7e0d2"/><circle cx="400.3" cy="219.3" r="1.1" fill="#e7e0d2"/><circle cx="341.9" cy="191.8" r="1.3" fill="#e7e0d2"/><circle cx="371.6" cy="204.3" r="1.5" fill="#e7e0d2"/><circle cx="376.0" cy="143.9" r="1.2" fill="#e7e0d2"/><circle cx="405.7" cy="167.6" r="1.1" fill="#e7e0d2"/><circle cx="397.6" cy="145.3" r="1.3" fill="#e7e0d2"/><circle cx="383.48" cy="179.51999999999998" r="28.704000000000004" fill="#ef9d6e"/><circle cx="383.48" cy="179.51999999999998" r="28.704000000000004" fill="none" stroke="rgba(0,0,0,0.10)" stroke-width="1.656"/><circle cx="372.5" cy="185.5" r="3.3" fill="#e8762e"/><circle cx="371.3" cy="174.9" r="3.3" fill="#e8762e"/><circle cx="390.1" cy="159.2" r="3.3" fill="#e8762e"/><circle cx="375.1" cy="163.7" r="3.3" fill="#e8762e"/><circle cx="374.1" cy="175.1" r="3.3" fill="#e8762e"/><circle cx="395.0" cy="160.8" r="3.3" fill="#e8762e"/><circle cx="371.0" cy="173.4" r="3.3" fill="#e8762e"/><circle cx="446.96" cy="179.51999999999998" r="55.2" fill="#26302a"/><circle cx="446.96" cy="179.51999999999998" r="49.68000000000001" fill="#fbfaf6"/><circle cx="446.96" cy="179.51999999999998" r="49.68000000000001" fill="none" stroke="#ece7dd" stroke-width="2.208"/><circle cx="441.9" cy="137.0" r="0.8" fill="#e7e0d2"/><circle cx="491.5" cy="180.7" r="1.1" fill="#e7e0d2"/><circle cx="458.0" cy="211.2" r="1.2" fill="#e7e0d2"/><circle cx="444.5" cy="143.6" r="1.2" fill="#e7e0d2"/><circle cx="448.0" cy="151.3" r="1.2" fill="#e7e0d2"/><circle cx="476.8" cy="155.0" r="1.3" fill="#e7e0d2"/><circle cx="477.5" cy="210.3" r="0.8" fill="#e7e0d2"/><circle cx="456.5" cy="155.7" r="1.2" fill="#e7e0d2"/><circle cx="433.7" cy="147.9" r="0.8" fill="#e7e0d2"/><circle cx="456.3" cy="209.9" r="1.0" fill="#e7e0d2"/><circle cx="466.0" cy="195.8" r="1.4" fill="#e7e0d2"/><circle cx="415.4" cy="170.6" r="0.8" fill="#e7e0d2"/><circle cx="450.3" cy="135.2" r="1.4" fill="#e7e0d2"/><circle cx="409.0" cy="184.1" r="1.3" fill="#e7e0d2"/><circle cx="446.96" cy="179.51999999999998" r="28.704000000000004" fill="#f2c971"/><circle cx="446.96" cy="179.51999999999998" r="28.704000000000004" fill="none" stroke="rgba(0,0,0,0.10)" stroke-width="1.656"/><circle cx="224.78" cy="248.51999999999998" r="55.2" fill="#26302a"/><circle cx="224.78" cy="248.51999999999998" r="49.68000000000001" fill="#fbfaf6"/><circle cx="224.78" cy="248.51999999999998" r="49.68000000000001" fill="none" stroke="#ece7dd" stroke-width="2.208"/><circle cx="236.0" cy="282.8" r="0.9" fill="#e7e0d2"/><circle cx="246.8" cy="233.5" r="1.2" fill="#e7e0d2"/><circle cx="230.4" cy="206.2" r="1.3" fill="#e7e0d2"/><circle cx="210.3" cy="217.4" r="1.5" fill="#e7e0d2"/><circle cx="230.8" cy="285.7" r="1.3" fill="#e7e0d2"/><circle cx="193.5" cy="255.4" r="0.8" fill="#e7e0d2"/><circle cx="195.2" cy="236.3" r="1.3" fill="#e7e0d2"/><circle cx="183.7" cy="261.2" r="1.3" fill="#e7e0d2"/><circle cx="208.2" cy="226.9" r="1.1" fill="#e7e0d2"/><circle cx="253.2" cy="238.4" r="0.9" fill="#e7e0d2"/><circle cx="205.9" cy="265.8" r="1.5" fill="#e7e0d2"/><circle cx="211.8" cy="224.3" r="1.6" fill="#e7e0d2"/><circle cx="196.0" cy="256.4" r="1.5" fill="#e7e0d2"/><circle cx="240.0" cy="272.3" r="1.1" fill="#e7e0d2"/><circle cx="224.78" cy="248.51999999999998" r="28.704000000000004" fill="#f0936a"/><circle cx="224.78" cy="248.51999999999998" r="28.704000000000004" fill="none" stroke="rgba(0,0,0,0.10)" stroke-width="1.656"/><circle cx="288.26" cy="248.51999999999998" r="55.2" fill="#26302a"/><circle cx="288.26" cy="248.51999999999998" r="49.68000000000001" fill="#fbfaf6"/><circle cx="288.26" cy="248.51999999999998" r="49.68000000000001" fill="none" stroke="#ece7dd" stroke-width="2.208"/><circle cx="294.1" cy="226.2" r="1.5" fill="#e7e0d2"/><circle cx="279.0" cy="269.2" r="0.9" fill="#e7e0d2"/><circle cx="251.8" cy="248.1" r="1.5" fill="#e7e0d2"/><circle cx="298.3" cy="226.0" r="1.5" fill="#e7e0d2"/><circle cx="321.8" cy="271.5" r="1.2" fill="#e7e0d2"/><circle cx="253.9" cy="229.4" r="1.0" fill="#e7e0d2"/><circle cx="327.2" cy="264.6" r="0.9" fill="#e7e0d2"/><circle cx="283.0" cy="272.2" r="1.1" fill="#e7e0d2"/><circle cx="279.3" cy="280.4" r="1.6" fill="#e7e0d2"/><circle cx="256.4" cy="249.7" r="1.4" fill="#e7e0d2"/><circle cx="278.1" cy="223.6" r="1.5" fill="#e7e0d2"/><circle cx="295.7" cy="221.4" r="1.2" fill="#e7e0d2"/><circle cx="270.0" cy="224.0" r="1.3" fill="#e7e0d2"/><circle cx="263.9" cy="227.6" r="1.4" fill="#e7e0d2"/><circle cx="288.26" cy="248.51999999999998" r="28.704000000000004" fill="#f2c971"/><circle cx="288.26" cy="248.51999999999998" r="28.704000000000004" fill="none" stroke="rgba(0,0,0,0.10)" stroke-width="1.656"/><circle cx="289.0" cy="237.2" r="3.3" fill="#e8762e"/><circle cx="300.2" cy="248.3" r="3.3" fill="#e8762e"/><circle cx="290.9" cy="247.4" r="3.3" fill="#e8762e"/><circle cx="285.2" cy="248.6" r="3.3" fill="#e8762e"/><circle cx="290.1" cy="248.7" r="3.3" fill="#e8762e"/><circle cx="287.6" cy="252.7" r="3.3" fill="#e8762e"/><circle cx="277.6" cy="243.7" r="3.3" fill="#e8762e"/><circle cx="351.74" cy="248.51999999999998" r="55.2" fill="#26302a"/><circle cx="351.74" cy="248.51999999999998" r="49.68000000000001" fill="#fbfaf6"/><circle cx="351.74" cy="248.51999999999998" r="49.68000000000001" fill="none" stroke="#ece7dd" stroke-width="2.208"/><circle cx="367.9" cy="269.6" r="1.5" fill="#e7e0d2"/><circle cx="324.0" cy="241.4" r="1.1" fill="#e7e0d2"/><circle cx="323.1" cy="240.6" r="1.4" fill="#e7e0d2"/><circle cx="373.6" cy="269.7" r="1.0" fill="#e7e0d2"/><circle cx="352.9" cy="207.5" r="1.2" fill="#e7e0d2"/><circle cx="370.4" cy="233.5" r="1.3" fill="#e7e0d2"/><circle cx="351.7" cy="275.1" r="1.2" fill="#e7e0d2"/><circle cx="371.8" cy="259.8" r="1.0" fill="#e7e0d2"/><circle cx="321.2" cy="227.7" r="1.4" fill="#e7e0d2"/><circle cx="335.1" cy="281.5" r="1.6" fill="#e7e0d2"/><circle cx="377.6" cy="240.8" r="1.1" fill="#e7e0d2"/><circle cx="363.8" cy="282.1" r="1.2" fill="#e7e0d2"/><circle cx="326.0" cy="235.2" r="1.5" fill="#e7e0d2"/><circle cx="386.9" cy="275.8" r="1.5" fill="#e7e0d2"/><circle cx="351.74" cy="248.51999999999998" r="28.704000000000004" fill="#ef9d6e"/><circle cx="351.74" cy="248.51999999999998" r="28.704000000000004" fill="none" stroke="rgba(0,0,0,0.10)" stroke-width="1.656"/><circle cx="415.22" cy="248.51999999999998" r="55.2" fill="#26302a"/><circle cx="415.22" cy="248.51999999999998" r="49.68000000000001" fill="#fbfaf6"/><circle cx="415.22" cy="248.51999999999998" r="49.68000000000001" fill="none" stroke="#ece7dd" stroke-width="2.208"/><circle cx="394.0" cy="264.5" r="1.5" fill="#e7e0d2"/><circle cx="391.1" cy="224.4" r="1.4" fill="#e7e0d2"/><circle cx="437.8" cy="218.3" r="0.9" fill="#e7e0d2"/><circle cx="440.3" cy="247.1" r="0.9" fill="#e7e0d2"/><circle cx="429.8" cy="276.4" r="1.3" fill="#e7e0d2"/><circle cx="431.9" cy="268.5" r="1.2" fill="#e7e0d2"/><circle cx="430.4" cy="230.3" r="1.5" fill="#e7e0d2"/><circle cx="415.9" cy="290.5" r="1.0" fill="#e7e0d2"/><circle cx="454.1" cy="226.9" r="1.6" fill="#e7e0d2"/><circle cx="389.0" cy="213.6" r="1.4" fill="#e7e0d2"/><circle cx="448.3" cy="253.8" r="1.1" fill="#e7e0d2"/><circle cx="390.1" cy="270.7" r="1.2" fill="#e7e0d2"/><circle cx="396.4" cy="265.7" r="1.1" fill="#e7e0d2"/><circle cx="399.7" cy="286.9" r="0.8" fill="#e7e0d2"/><circle cx="415.22" cy="248.51999999999998" r="28.704000000000004" fill="#f2c971"/><circle cx="415.22" cy="248.51999999999998" r="28.704000000000004" fill="none" stroke="rgba(0,0,0,0.10)" stroke-width="1.656"/><text x="320.0" y="432.0" font-family="Outfit,Arial,sans-serif" font-size="24.0" font-weight="700" fill="#1a1518" text-anchor="middle">Сет «Дзаппон»</text><text x="320.0" y="458.4" font-family="Outfit,Arial,sans-serif" font-size="15.36" letter-spacing="2" fill="#d32b2b" text-anchor="middle">СЕТЫ</text></svg>