<svg xmlns="http://www.w3.org/2000/svg" width="640" height="480" viewBox="0 0 640 480"><defs><radialGradient id="bg" cx="50%" cy="42%" r="70%"><stop offset="0%" stop-color="#fdf9f5"/><stop offset="100%" stop-color="#f7efe9"/></radialGradient></defs><rect width="640" height="480" fill="url(#bg)"/><ellipse cx="320.0" cy="232.32" rx="268.8" ry="124.80000000000001" fill="#e7d9d0"/><ellipse cx="320.0" cy="224.832" rx="247.29600000000002" ry="112.32000000000001" fill="#efe4dc"/><circle cx="209.60000000000002" cy="215.424" r="76.8" fill="#26302a"/><circle cx="209.60000000000002" cy="215.424" r="69.12" fill="#fbfaf6"/><circle cx="209.60000000000002" cy="215.424" r="69.12" fill="none" stroke="#ece7dd" stroke-width="3.072"/><circle cx="193.6" cy="247.5" r="1.3" fill="#e7e0d2"/><circle cx="252.5" cy="236.4" r="1.1" fill="#e7e0d2"/><circle cx="253.4" cy="232.1" r="0.8" fill="#e7e0d2"/><circle cx="179.2" cy="228.9" r="0.9" fill="#e7e0d2"/><circle cx="159.1" cy="241.4" r="0.9" fill="#e7e0d2"/><circle cx="218.1" cy="265.3" r="1.6" fill="#e7e0d2"/><circle cx="171.1" cy="195.3" r="1.6" fill="#e7e0d2"/><circle cx="264.9" cy="232.1" r="1.0" fill="#e7e0d2"/><circle cx="231.1" cy="242.8" r="1.0" fill="#e7e0d2"/><circle cx="224.3" cy="181.8" r="1.3" fill="#e7e0d2"/><circle cx="182.1" cy="182.8" r="1.2" fill="#e7e0d2"/><circle cx="240.0" cy="228.1" r="1.0" fill="#e7e0d2"/><circle cx="190.7" cy="175.2" r="1.1" fill="#e7e0d2"/><circle cx="170.7" cy="192.4" r="1.0" fill="#e7e0d2"/><circle cx="209.60000000000002" cy="215.424" r="39.936" fill="#f0936a"/><circle cx="209.60000000000002" cy="215.424" r="39.936" fill="none" stroke="rgba(0,0,0,0.10)" stroke-width="2.304"/><ellipse cx="209.60000000000002" cy="211.584" rx="47.616" ry="23.04" fill="#fbf2e4" opacity="0.92"/><circle cx="320.0" cy="201.6" r="76.8" fill="#26302a"/><circle cx="320.0" cy="201.6" r="69.12" fill="#fbfaf6"/><circle cx="320.0" cy="201.6" r="69.12" fill="none" stroke="#ece7dd" stroke-width="3.072"/><circle cx="328.9" cy="262.0" r="0.9" fill="#e7e0d2"/><circle cx="310.5" cy="169.2" r="1.0" fill="#e7e0d2"/><circle cx="357.6" cy="201.3" r="1.3" fill="#e7e0d2"/><circle cx="276.3" cy="213.1" r="1.2" fill="#e7e0d2"/><circle cx="340.2" cy="254.8" r="0.9" fill="#e7e0d2"/><circle cx="323.2" cy="233.2" r="1.0" fill="#e7e0d2"/><circle cx="270.6" cy="234.1" r="1.1" fill="#e7e0d2"/><circle cx="349.6" cy="227.2" r="1.6" fill="#e7e0d2"/><circle cx="366.5" cy="221.0" r="1.1" fill="#e7e0d2"/><circle cx="297.8" cy="166.4" r="1.4" fill="#e7e0d2"/><circle cx="268.7" cy="202.5" r="1.5" fill="#e7e0d2"/><circle cx="289.0" cy="184.2" r="0.9" fill="#e7e0d2"/><circle cx="363.6" cy="186.1" r="1.0" fill="#e7e0d2"/><circle cx="366.3" cy="185.1" r="1.4" fill="#e7e0d2"/><circle cx="320.0" cy="201.6" r="39.936" fill="#f0936a"/><circle cx="320.0" cy="201.6" r="39.936" fill="none" stroke="rgba(0,0,0,0.10)" stroke-width="2.304"/><ellipse cx="320.0" cy="197.76" rx="47.616" ry="23.04" fill="#fbf2e4" opacity="0.92"/><circle cx="430.4" cy="215.424" r="76.8" fill="#26302a"/><circle cx="430.4" cy="215.424" r="69.12" fill="#fbfaf6"/><circle cx="430.4" cy="215.424" r="69.12" fill="none" stroke="#ece7dd" stroke-width="3.072"/><circle cx="388.8" cy="225.3" r="0.9" fill="#e7e0d2"/><circle cx="451.3" cy="192.1" r="1.2" fill="#e7e0d2"/><circle cx="457.3" cy="195.3" r="1.2" fill="#e7e0d2"/><circle cx="406.3" cy="193.8" r="1.1" fill="#e7e0d2"/><circle cx="417.3" cy="172.2" r="1.4" fill="#e7e0d2"/><circle cx="451.6" cy="247.6" r="0.9" fill="#e7e0d2"/><circle cx="370.6" cy="213.2" r="1.3" fill="#e7e0d2"/><circle cx="436.8" cy="172.9" r="1.4" fill="#e7e0d2"/><circle cx="462.6" cy="239.4" r="1.3" fill="#e7e0d2"/><circle cx="423.6" cy="171.7" r="0.9" fill="#e7e0d2"/><circle cx="426.5" cy="252.9" r="1.0" fill="#e7e0d2"/><circle cx="443.9" cy="180.7" r="1.5" fill="#e7e0d2"/><circle cx="454.2" cy="192.8" r="1.1" fill="#e7e0d2"/><circle cx="398.6" cy="217.1" r="1.1" fill="#e7e0d2"/><circle cx="430.4" cy="215.424" r="39.936" fill="#f0936a"/><circle cx="430.4" cy="215.424" r="39.936" fill="none" stroke="rgba(0,0,0,0.10)" stroke-width="2.304"/><ellipse cx="430.4" cy="211.584" rx="47.616" ry="23.04" fill="#fbf2e4" opacity="0.92"/><text x="320.0" y="432.0" font-family="Outfit,Arial,sans-serif" font-size="24.0" font-weight="700" fill="#1a1518" text-anchor="middle">Филадельфия</text><text x="320.0" y="458.4" font-family="Outfit,Arial,sans-serif" font-size="15.36" letter-spacing="2" fill="#d32b2b" text-anchor="middle">РОЛЛЫ</text></svg>