<svg xmlns="http://www.w3.org/2000/svg" width="640" height="480" viewBox="0 0 640 480"><defs><radialGradient id="bg" cx="50%" cy="42%" r="70%"><stop offset="0%" stop-color="#fdf9f5"/><stop offset="100%" stop-color="#f7efe9"/></radialGradient></defs><rect width="640" height="480" fill="url(#bg)"/><ellipse cx="320.0" cy="232.32" rx="268.8" ry="124.80000000000001" fill="#e7d9d0"/><ellipse cx="320.0" cy="224.832" rx="247.29600000000002" ry="112.32000000000001" fill="#efe4dc"/><circle cx="209.60000000000002" cy="215.424" r="76.8" fill="#26302a"/><circle cx="209.60000000000002" cy="215.424" r="69.12" fill="#fbfaf6"/><circle cx="209.60000000000002" cy="215.424" r="69.12" fill="none" stroke="#ece7dd" stroke-width="3.072"/><circle cx="236.3" cy="238.3" r="1.3" fill="#e7e0d2"/><circle cx="225.0" cy="247.1" r="1.2" fill="#e7e0d2"/><circle cx="176.8" cy="234.2" r="1.1" fill="#e7e0d2"/><circle cx="228.8" cy="185.9" r="1.0" fill="#e7e0d2"/><circle cx="247.6" cy="222.1" r="0.9" fill="#e7e0d2"/><circle cx="250.3" cy="211.4" r="1.6" fill="#e7e0d2"/><circle cx="250.3" cy="258.4" r="1.2" fill="#e7e0d2"/><circle cx="190.6" cy="167.3" r="1.0" fill="#e7e0d2"/><circle cx="215.4" cy="267.3" r="0.9" fill="#e7e0d2"/><circle cx="264.5" cy="220.0" r="1.3" fill="#e7e0d2"/><circle cx="206.6" cy="262.6" r="1.5" fill="#e7e0d2"/><circle cx="203.3" cy="249.8" r="1.1" fill="#e7e0d2"/><circle cx="230.7" cy="252.4" r="0.8" fill="#e7e0d2"/><circle cx="214.3" cy="159.4" r="1.1" fill="#e7e0d2"/><circle cx="209.60000000000002" cy="215.424" r="39.936" fill="#ef9d6e"/><circle cx="209.60000000000002" cy="215.424" r="39.936" fill="none" stroke="rgba(0,0,0,0.10)" stroke-width="2.304"/><circle cx="208.4" cy="212.9" r="4.6" fill="#e8762e"/><circle cx="190.5" cy="198.0" r="4.6" fill="#e8762e"/><circle cx="217.6" cy="201.8" r="4.6" fill="#e8762e"/><circle cx="201.9" cy="207.1" r="4.6" fill="#e8762e"/><circle cx="206.3" cy="214.8" r="4.6" fill="#e8762e"/><circle cx="202.0" cy="198.6" r="4.6" fill="#e8762e"/><circle cx="207.3" cy="226.8" r="4.6" fill="#e8762e"/><circle cx="320.0" cy="201.6" r="76.8" fill="#26302a"/><circle cx="320.0" cy="201.6" r="69.12" fill="#fbfaf6"/><circle cx="320.0" cy="201.6" r="69.12" fill="none" stroke="#ece7dd" stroke-width="3.072"/><circle cx="280.0" cy="189.2" r="1.5" fill="#e7e0d2"/><circle cx="308.8" cy="247.2" r="1.1" fill="#e7e0d2"/><circle cx="267.1" cy="232.8" r="0.9" fill="#e7e0d2"/><circle cx="284.2" cy="214.6" r="1.1" fill="#e7e0d2"/><circle cx="361.3" cy="201.1" r="1.3" fill="#e7e0d2"/><circle cx="272.9" cy="227.7" r="1.2" fill="#e7e0d2"/><circle cx="341.4" cy="240.7" r="1.1" fill="#e7e0d2"/><circle cx="332.8" cy="154.7" r="1.0" fill="#e7e0d2"/><circle cx="301.3" cy="165.8" r="1.2" fill="#e7e0d2"/><circle cx="328.3" cy="244.7" r="1.4" fill="#e7e0d2"/><circle cx="265.8" cy="196.3" r="1.4" fill="#e7e0d2"/><circle cx="276.3" cy="175.1" r="1.1" fill="#e7e0d2"/><circle cx="279.1" cy="164.4" r="0.9" fill="#e7e0d2"/><circle cx="359.3" cy="185.2" r="0.9" fill="#e7e0d2"/><circle cx="320.0" cy="201.6" r="39.936" fill="#ef9d6e"/><circle cx="320.0" cy="201.6" r="39.936" fill="none" stroke="rgba(0,0,0,0.10)" stroke-width="2.304"/><circle cx="311.5" cy="191.5" r="4.6" fill="#e8762e"/><circle cx="319.7" cy="199.6" r="4.6" fill="#e8762e"/><circle cx="316.3" cy="190.7" r="4.6" fill="#e8762e"/><circle cx="315.9" cy="198.3" r="4.6" fill="#e8762e"/><circle cx="315.4" cy="208.4" r="4.6" fill="#e8762e"/><circle cx="309.3" cy="221.2" r="4.6" fill="#e8762e"/><circle cx="290.9" cy="206.6" r="4.6" fill="#e8762e"/><circle cx="430.4" cy="215.424" r="76.8" fill="#26302a"/><circle cx="430.4" cy="215.424" r="69.12" fill="#fbfaf6"/><circle cx="430.4" cy="215.424" r="69.12" fill="none" stroke="#ece7dd" stroke-width="3.072"/><circle cx="391.5" cy="205.7" r="0.8" fill="#e7e0d2"/><circle cx="408.9" cy="184.5" r="1.0" fill="#e7e0d2"/><circle cx="389.7" cy="246.2" r="1.6" fill="#e7e0d2"/><circle cx="370.2" cy="230.4" r="1.6" fill="#e7e0d2"/><circle cx="432.0" cy="248.8" r="0.9" fill="#e7e0d2"/><circle cx="457.4" cy="173.7" r="1.5" fill="#e7e0d2"/><circle cx="481.0" cy="206.3" r="1.2" fill="#e7e0d2"/><circle cx="459.4" cy="228.5" r="1.4" fill="#e7e0d2"/><circle cx="404.5" cy="167.1" r="1.3" fill="#e7e0d2"/><circle cx="406.8" cy="170.2" r="1.5" fill="#e7e0d2"/><circle cx="465.9" cy="245.4" r="1.0" fill="#e7e0d2"/><circle cx="458.2" cy="164.1" r="1.0" fill="#e7e0d2"/><circle cx="464.3" cy="234.1" r="1.1" fill="#e7e0d2"/><circle cx="435.7" cy="171.9" r="1.4" fill="#e7e0d2"/><circle cx="430.4" cy="215.424" r="39.936" fill="#ef9d6e"/><circle cx="430.4" cy="215.424" r="39.936" fill="none" stroke="rgba(0,0,0,0.10)" stroke-width="2.304"/><circle cx="433.4" cy="226.9" r="4.6" fill="#e8762e"/><circle cx="434.5" cy="226.9" r="4.6" fill="#e8762e"/><circle cx="412.1" cy="207.8" r="4.6" fill="#e8762e"/><circle cx="430.1" cy="226.4" r="4.6" fill="#e8762e"/><circle cx="441.3" cy="237.9" r="4.6" fill="#e8762e"/><circle cx="423.0" cy="241.5" r="4.6" fill="#e8762e"/><circle cx="430.6" cy="215.5" r="4.6" fill="#e8762e"/><text x="320.0" y="432.0" font-family="Outfit,Arial,sans-serif" font-size="24.0" font-weight="700" fill="#1a1518" text-anchor="middle">Гункан краб</text><text x="320.0" y="458.4" font-family="Outfit,Arial,sans-serif" font-size="15.36" letter-spacing="2" fill="#d32b2b" text-anchor="middle">РОЛЛЫ</text></svg>