<svg xmlns="http://www.w3.org/2000/svg" width="640" height="480" viewBox="0 0 640 480"><defs><radialGradient id="bg" cx="50%" cy="42%" r="70%"><stop offset="0%" stop-color="#fdf9f5"/><stop offset="100%" stop-color="#f7efe9"/></radialGradient></defs><rect width="640" height="480" fill="url(#bg)"/><ellipse cx="320.0" cy="229.2" rx="294.40000000000003" ry="144.0" fill="#e7d9d0"/><ellipse cx="320.0" cy="220.56" rx="270.84800000000007" ry="129.6" fill="#efe4dc"/><circle cx="193.04000000000002" cy="179.51999999999998" r="55.2" fill="#26302a"/><circle cx="193.04000000000002" cy="179.51999999999998" r="49.68000000000001" fill="#fbfaf6"/><circle cx="193.04000000000002" cy="179.51999999999998" r="49.68000000000001" fill="none" stroke="#ece7dd" stroke-width="2.208"/><circle cx="200.1" cy="202.9" r="1.3" fill="#e7e0d2"/><circle cx="161.7" cy="160.8" r="1.1" fill="#e7e0d2"/><circle cx="152.8" cy="192.3" r="1.5" fill="#e7e0d2"/><circle cx="190.4" cy="207.9" r="0.9" fill="#e7e0d2"/><circle cx="190.3" cy="156.4" r="1.3" fill="#e7e0d2"/><circle cx="232.4" cy="167.1" r="1.1" fill="#e7e0d2"/><circle cx="202.2" cy="155.9" r="1.4" fill="#e7e0d2"/><circle cx="208.9" cy="213.5" r="0.8" fill="#e7e0d2"/><circle cx="150.0" cy="178.3" r="1.0" fill="#e7e0d2"/><circle cx="218.5" cy="198.7" r="0.8" fill="#e7e0d2"/><circle cx="225.0" cy="197.9" r="1.6" fill="#e7e0d2"/><circle cx="232.9" cy="172.4" r="1.1" fill="#e7e0d2"/><circle cx="201.0" cy="141.5" r="1.4" fill="#e7e0d2"/><circle cx="154.3" cy="185.1" r="1.1" fill="#e7e0d2"/><circle cx="193.04000000000002" cy="179.51999999999998" r="28.704000000000004" fill="#f0936a"/><circle cx="193.04000000000002" cy="179.51999999999998" r="28.704000000000004" fill="none" stroke="rgba(0,0,0,0.10)" stroke-width="1.656"/><circle cx="189.4" cy="182.0" r="3.3" fill="#e8762e"/><circle cx="195.4" cy="184.5" r="3.3" fill="#e8762e"/><circle cx="193.4" cy="174.0" r="3.3" fill="#e8762e"/><circle cx="181.8" cy="189.7" r="3.3" fill="#e8762e"/><circle cx="172.9" cy="174.6" r="3.3" fill="#e8762e"/><circle cx="183.8" cy="180.2" r="3.3" fill="#e8762e"/><circle cx="189.4" cy="176.4" r="3.3" fill="#e8762e"/><circle cx="256.52" cy="179.51999999999998" r="55.2" fill="#26302a"/><circle cx="256.52" cy="179.51999999999998" r="49.68000000000001" fill="#fbfaf6"/><circle cx="256.52" cy="179.51999999999998" r="49.68000000000001" fill="none" stroke="#ece7dd" stroke-width="2.208"/><circle cx="279.2" cy="192.6" r="1.3" fill="#e7e0d2"/><circle cx="279.6" cy="216.5" r="1.5" fill="#e7e0d2"/><circle cx="254.9" cy="146.8" r="1.5" fill="#e7e0d2"/><circle cx="258.0" cy="215.3" r="1.1" fill="#e7e0d2"/><circle cx="212.7" cy="182.2" r="1.0" fill="#e7e0d2"/><circle cx="257.6" cy="140.0" r="0.9" fill="#e7e0d2"/><circle cx="288.9" cy="177.9" r="1.2" fill="#e7e0d2"/><circle cx="245.4" cy="212.5" r="1.6" fill="#e7e0d2"/><circle cx="234.0" cy="211.0" r="1.4" fill="#e7e0d2"/><circle cx="282.1" cy="151.7" r="1.1" fill="#e7e0d2"/><circle cx="240.1" cy="205.8" r="1.1" fill="#e7e0d2"/><circle cx="287.3" cy="152.6" r="1.0" fill="#e7e0d2"/><circle cx="254.3" cy="202.8" r="1.5" fill="#e7e0d2"/><circle cx="285.5" cy="190.8" r="0.9" fill="#e7e0d2"/><circle cx="256.52" cy="179.51999999999998" r="28.704000000000004" fill="#8fb46a"/><circle cx="256.52" cy="179.51999999999998" r="28.704000000000004" fill="none" stroke="rgba(0,0,0,0.10)" stroke-width="1.656"/><circle cx="320.0" cy="179.51999999999998" r="55.2" fill="#26302a"/><circle cx="320.0" cy="179.51999999999998" r="49.68000000000001" fill="#fbfaf6"/><circle cx="320.0" cy="179.51999999999998" r="49.68000000000001" fill="none" stroke="#ece7dd" stroke-width="2.208"/><circle cx="289.3" cy="196.2" r="1.2" fill="#e7e0d2"/><circle cx="285.8" cy="158.3" r="1.6" fill="#e7e0d2"/><circle cx="301.0" cy="143.8" r="1.3" fill="#e7e0d2"/><circle cx="279.6" cy="186.9" r="1.6" fill="#e7e0d2"/><circle cx="287.2" cy="163.5" r="0.8" fill="#e7e0d2"/><circle cx="343.7" cy="151.5" r="1.3" fill="#e7e0d2"/><circle cx="338.0" cy="209.9" r="1.3" fill="#e7e0d2"/><circle cx="337.5" cy="205.8" r="1.4" fill="#e7e0d2"/><circle cx="327.1" cy="141.9" r="1.3" fill="#e7e0d2"/><circle cx="358.1" cy="167.3" r="0.9" fill="#e7e0d2"/><circle cx="305.0" cy="197.1" r="1.5" fill="#e7e0d2"/><circle cx="309.7" cy="154.3" r="0.9" fill="#e7e0d2"/><circle cx="325.1" cy="215.1" r="1.2" fill="#e7e0d2"/><circle cx="356.9" cy="181.1" r="1.0" fill="#e7e0d2"/><circle cx="320.0" cy="179.51999999999998" r="28.704000000000004" fill="#7c4a2c"/><circle cx="320.0" cy="179.51999999999998" r="28.704000000000004" fill="none" stroke="rgba(0,0,0,0.10)" stroke-width="1.656"/><circle cx="383.48" cy="179.51999999999998" r="55.2" fill="#26302a"/><circle cx="383.48" cy="179.51999999999998" r="49.68000000000001" fill="#fbfaf6"/><circle cx="383.48" cy="179.51999999999998" r="49.68000000000001" fill="none" stroke="#ece7dd" stroke-width="2.208"/><circle cx="411.9" cy="162.0" r="1.3" fill="#e7e0d2"/><circle cx="368.5" cy="199.4" r="1.1" fill="#e7e0d2"/><circle cx="395.2" cy="201.7" r="0.9" fill="#e7e0d2"/><circle cx="417.5" cy="186.7" r="0.9" fill="#e7e0d2"/><circle cx="361.4" cy="158.4" r="1.5" fill="#e7e0d2"/><circle cx="361.3" cy="146.7" r="1.3" fill="#e7e0d2"/><circle cx="383.9" cy="136.1" r="1.6" fill="#e7e0d2"/><circle cx="398.7" cy="204.2" r="1.0" fill="#e7e0d2"/><circle cx="392.7" cy="218.0" r="1.5" fill="#e7e0d2"/><circle cx="407.5" cy="189.7" r="1.5" fill="#e7e0d2"/><circle cx="402.6" cy="194.3" r="1.5" fill="#e7e0d2"/><circle cx="379.0" cy="201.8" r="1.3" fill="#e7e0d2"/><circle cx="395.1" cy="208.2" r="1.1" fill="#e7e0d2"/><circle cx="401.4" cy="139.9" r="1.6" fill="#e7e0d2"/><circle cx="383.48" cy="179.51999999999998" r="28.704000000000004" fill="#f0936a"/><circle cx="383.48" cy="179.51999999999998" r="28.704000000000004" fill="none" stroke="rgba(0,0,0,0.10)" stroke-width="1.656"/><circle cx="391.6" cy="190.4" r="3.3" fill="#e8762e"/><circle cx="391.1" cy="193.3" r="3.3" fill="#e8762e"/><circle cx="376.9" cy="174.2" r="3.3" fill="#e8762e"/><circle cx="374.2" cy="171.1" r="3.3" fill="#e8762e"/><circle cx="394.8" cy="182.7" r="3.3" fill="#e8762e"/><circle cx="375.1" cy="171.7" r="3.3" fill="#e8762e"/><circle cx="395.2" cy="168.3" r="3.3" fill="#e8762e"/><circle cx="446.96" cy="179.51999999999998" r="55.2" fill="#26302a"/><circle cx="446.96" cy="179.51999999999998" r="49.68000000000001" fill="#fbfaf6"/><circle cx="446.96" cy="179.51999999999998" r="49.68000000000001" fill="none" stroke="#ece7dd" stroke-width="2.208"/><circle cx="422.9" cy="172.3" r="1.0" fill="#e7e0d2"/><circle cx="426.4" cy="189.1" r="1.2" fill="#e7e0d2"/><circle cx="477.4" cy="169.9" r="1.5" fill="#e7e0d2"/><circle cx="469.0" cy="173.8" r="0.8" fill="#e7e0d2"/><circle cx="406.7" cy="196.7" r="1.2" fill="#e7e0d2"/><circle cx="457.9" cy="143.8" r="0.8" fill="#e7e0d2"/><circle cx="411.1" cy="187.4" r="0.9" fill="#e7e0d2"/><circle cx="472.1" cy="207.0" r="1.0" fill="#e7e0d2"/><circle cx="436.5" cy="152.9" r="0.9" fill="#e7e0d2"/><circle cx="418.8" cy="207.9" r="1.1" fill="#e7e0d2"/><circle cx="408.9" cy="168.3" r="1.0" fill="#e7e0d2"/><circle cx="462.5" cy="162.2" r="1.2" fill="#e7e0d2"/><circle cx="448.4" cy="205.7" r="1.5" fill="#e7e0d2"/><circle cx="467.0" cy="213.9" r="1.2" fill="#e7e0d2"/><circle cx="446.96" cy="179.51999999999998" r="28.704000000000004" fill="#8fb46a"/><circle cx="446.96" cy="179.51999999999998" r="28.704000000000004" fill="none" stroke="rgba(0,0,0,0.10)" stroke-width="1.656"/><circle cx="224.78" cy="248.51999999999998" r="55.2" fill="#26302a"/><circle cx="224.78" cy="248.51999999999998" r="49.68000000000001" fill="#fbfaf6"/><circle cx="224.78" cy="248.51999999999998" r="49.68000000000001" fill="none" stroke="#ece7dd" stroke-width="2.208"/><circle cx="226.9" cy="214.7" r="1.6" fill="#e7e0d2"/><circle cx="182.8" cy="238.0" r="0.9" fill="#e7e0d2"/><circle cx="199.3" cy="249.5" r="0.8" fill="#e7e0d2"/><circle cx="249.4" cy="263.0" r="1.0" fill="#e7e0d2"/><circle cx="193.6" cy="234.4" r="1.0" fill="#e7e0d2"/><circle cx="206.6" cy="224.1" r="1.4" fill="#e7e0d2"/><circle cx="205.2" cy="265.4" r="0.9" fill="#e7e0d2"/><circle cx="259.5" cy="238.3" r="1.3" fill="#e7e0d2"/><circle cx="196.9" cy="229.5" r="0.9" fill="#e7e0d2"/><circle cx="221.2" cy="211.1" r="1.5" fill="#e7e0d2"/><circle cx="202.5" cy="252.8" r="1.1" fill="#e7e0d2"/><circle cx="189.8" cy="241.9" r="1.0" fill="#e7e0d2"/><circle cx="202.8" cy="271.7" r="1.5" fill="#e7e0d2"/><circle cx="242.9" cy="266.2" r="1.5" fill="#e7e0d2"/><circle cx="224.78" cy="248.51999999999998" r="28.704000000000004" fill="#7c4a2c"/><circle cx="224.78" cy="248.51999999999998" r="28.704000000000004" fill="none" stroke="rgba(0,0,0,0.10)" stroke-width="1.656"/><circle cx="288.26" cy="248.51999999999998" r="55.2" fill="#26302a"/><circle cx="288.26" cy="248.51999999999998" r="49.68000000000001" fill="#fbfaf6"/><circle cx="288.26" cy="248.51999999999998" r="49.68000000000001" fill="none" stroke="#ece7dd" stroke-width="2.208"/><circle cx="259.0" cy="279.5" r="1.1" fill="#e7e0d2"/><circle cx="299.4" cy="287.6" r="1.4" fill="#e7e0d2"/><circle cx="280.9" cy="226.9" r="1.1" fill="#e7e0d2"/><circle cx="277.2" cy="274.3" r="1.1" fill="#e7e0d2"/><circle cx="282.8" cy="281.7" r="0.8" fill="#e7e0d2"/><circle cx="249.0" cy="228.1" r="1.2" fill="#e7e0d2"/><circle cx="272.7" cy="282.9" r="1.1" fill="#e7e0d2"/><circle cx="323.5" cy="225.5" r="1.4" fill="#e7e0d2"/><circle cx="265.3" cy="246.8" r="0.8" fill="#e7e0d2"/><circle cx="250.6" cy="264.2" r="1.1" fill="#e7e0d2"/><circle cx="323.5" cy="244.1" r="0.9" fill="#e7e0d2"/><circle cx="246.4" cy="234.1" r="1.0" fill="#e7e0d2"/><circle cx="306.4" cy="216.2" r="1.0" fill="#e7e0d2"/><circle cx="296.6" cy="223.2" r="1.1" fill="#e7e0d2"/><circle cx="288.26" cy="248.51999999999998" r="28.704000000000004" fill="#f0936a"/><circle cx="288.26" cy="248.51999999999998" r="28.704000000000004" fill="none" stroke="rgba(0,0,0,0.10)" stroke-width="1.656"/><circle cx="293.8" cy="243.2" r="3.3" fill="#e8762e"/><circle cx="293.5" cy="228.2" r="3.3" fill="#e8762e"/><circle cx="281.8" cy="264.2" r="3.3" fill="#e8762e"/><circle cx="286.4" cy="251.6" r="3.3" fill="#e8762e"/><circle cx="278.7" cy="262.1" r="3.3" fill="#e8762e"/><circle cx="297.0" cy="260.2" r="3.3" fill="#e8762e"/><circle cx="286.0" cy="251.5" r="3.3" fill="#e8762e"/><circle cx="351.74" cy="248.51999999999998" r="55.2" fill="#26302a"/><circle cx="351.74" cy="248.51999999999998" r="49.68000000000001" fill="#fbfaf6"/><circle cx="351.74" cy="248.51999999999998" r="49.68000000000001" fill="none" stroke="#ece7dd" stroke-width="2.208"/><circle cx="365.6" cy="286.5" r="1.1" fill="#e7e0d2"/><circle cx="373.6" cy="214.8" r="1.3" fill="#e7e0d2"/><circle cx="330.0" cy="240.3" r="1.5" fill="#e7e0d2"/><circle cx="363.8" cy="220.4" r="0.9" fill="#e7e0d2"/><circle cx="317.2" cy="262.8" r="1.5" fill="#e7e0d2"/><circle cx="353.2" cy="277.7" r="1.0" fill="#e7e0d2"/><circle cx="329.2" cy="262.5" r="1.5" fill="#e7e0d2"/><circle cx="355.1" cy="282.9" r="0.9" fill="#e7e0d2"/><circle cx="351.4" cy="223.7" r="0.9" fill="#e7e0d2"/><circle cx="309.9" cy="240.1" r="1.3" fill="#e7e0d2"/><circle cx="350.3" cy="216.1" r="1.6" fill="#e7e0d2"/><circle cx="353.2" cy="271.3" r="1.3" fill="#e7e0d2"/><circle cx="325.0" cy="247.4" r="0.9" fill="#e7e0d2"/><circle cx="328.6" cy="233.1" r="0.9" fill="#e7e0d2"/><circle cx="351.74" cy="248.51999999999998" r="28.704000000000004" fill="#8fb46a"/><circle cx="351.74" cy="248.51999999999998" r="28.704000000000004" fill="none" stroke="rgba(0,0,0,0.10)" stroke-width="1.656"/><circle cx="415.22" cy="248.51999999999998" r="55.2" fill="#26302a"/><circle cx="415.22" cy="248.51999999999998" r="49.68000000000001" fill="#fbfaf6"/><circle cx="415.22" cy="248.51999999999998" r="49.68000000000001" fill="none" stroke="#ece7dd" stroke-width="2.208"/><circle cx="389.9" cy="280.7" r="1.1" fill="#e7e0d2"/><circle cx="445.9" cy="260.4" r="1.4" fill="#e7e0d2"/><circle cx="404.8" cy="227.1" r="1.2" fill="#e7e0d2"/><circle cx="422.9" cy="270.3" r="1.6" fill="#e7e0d2"/><circle cx="406.6" cy="219.3" r="1.4" fill="#e7e0d2"/><circle cx="420.9" cy="226.7" r="1.1" fill="#e7e0d2"/><circle cx="407.4" cy="270.6" r="1.4" fill="#e7e0d2"/><circle cx="437.5" cy="223.9" r="1.5" fill="#e7e0d2"/><circle cx="384.9" cy="240.6" r="1.3" fill="#e7e0d2"/><circle cx="426.1" cy="222.3" r="1.2" fill="#e7e0d2"/><circle cx="439.6" cy="272.9" r="1.4" fill="#e7e0d2"/><circle cx="394.4" cy="261.7" r="1.5" fill="#e7e0d2"/><circle cx="420.7" cy="208.1" r="0.9" fill="#e7e0d2"/><circle cx="448.6" cy="248.2" r="0.9" fill="#e7e0d2"/><circle cx="415.22" cy="248.51999999999998" r="28.704000000000004" fill="#7c4a2c"/><circle cx="415.22" cy="248.51999999999998" r="28.704000000000004" fill="none" stroke="rgba(0,0,0,0.10)" stroke-width="1.656"/><text x="320.0" y="432.0" font-family="Outfit,Arial,sans-serif" font-size="24.0" font-weight="700" fill="#1a1518" text-anchor="middle">Сет «На двоих»</text><text x="320.0" y="458.4" font-family="Outfit,Arial,sans-serif" font-size="15.36" letter-spacing="2" fill="#d32b2b" text-anchor="middle">СЕТЫ</text></svg>