<svg xmlns="http://www.w3.org/2000/svg" width="640" height="480" viewBox="0 0 640 480"><defs><radialGradient id="bg" cx="50%" cy="42%" r="70%"><stop offset="0%" stop-color="#fdf9f5"/><stop offset="100%" stop-color="#f7efe9"/></radialGradient></defs><rect width="640" height="480" fill="url(#bg)"/><ellipse cx="320.0" cy="232.32" rx="268.8" ry="124.80000000000001" fill="#e7d9d0"/><ellipse cx="320.0" cy="224.832" rx="247.29600000000002" ry="112.32000000000001" fill="#efe4dc"/><circle cx="209.60000000000002" cy="215.424" r="76.8" fill="#26302a"/><circle cx="209.60000000000002" cy="215.424" r="69.12" fill="#fbfaf6"/><circle cx="209.60000000000002" cy="215.424" r="69.12" fill="none" stroke="#ece7dd" stroke-width="3.072"/><circle cx="236.4" cy="260.6" r="1.3" fill="#e7e0d2"/><circle cx="172.1" cy="220.4" r="1.4" fill="#e7e0d2"/><circle cx="226.2" cy="171.4" r="1.2" fill="#e7e0d2"/><circle cx="212.4" cy="246.5" r="1.1" fill="#e7e0d2"/><circle cx="181.0" cy="198.5" r="1.4" fill="#e7e0d2"/><circle cx="213.9" cy="253.5" r="0.8" fill="#e7e0d2"/><circle cx="263.7" cy="214.4" r="1.5" fill="#e7e0d2"/><circle cx="185.6" cy="194.1" r="1.1" fill="#e7e0d2"/><circle cx="174.9" cy="216.0" r="1.6" fill="#e7e0d2"/><circle cx="185.3" cy="241.9" r="1.5" fill="#e7e0d2"/><circle cx="252.1" cy="257.8" r="1.2" fill="#e7e0d2"/><circle cx="170.0" cy="202.1" r="1.2" fill="#e7e0d2"/><circle cx="222.1" cy="245.2" r="1.5" fill="#e7e0d2"/><circle cx="214.9" cy="270.5" r="1.0" fill="#e7e0d2"/><circle cx="209.60000000000002" cy="215.424" r="39.936" fill="#e6ad5e"/><circle cx="209.60000000000002" cy="215.424" r="39.936" fill="none" stroke="rgba(0,0,0,0.10)" stroke-width="2.304"/><ellipse cx="209.60000000000002" cy="211.584" rx="47.616" ry="23.04" fill="#f3b6a0" opacity="0.92"/><circle cx="320.0" cy="201.6" r="76.8" fill="#26302a"/><circle cx="320.0" cy="201.6" r="69.12" fill="#fbfaf6"/><circle cx="320.0" cy="201.6" r="69.12" fill="none" stroke="#ece7dd" stroke-width="3.072"/><circle cx="354.2" cy="192.3" r="0.8" fill="#e7e0d2"/><circle cx="356.8" cy="201.2" r="0.9" fill="#e7e0d2"/><circle cx="295.6" cy="167.6" r="1.5" fill="#e7e0d2"/><circle cx="327.0" cy="262.1" r="1.1" fill="#e7e0d2"/><circle cx="271.6" cy="166.0" r="1.3" fill="#e7e0d2"/><circle cx="367.1" cy="177.0" r="0.8" fill="#e7e0d2"/><circle cx="356.2" cy="168.0" r="1.0" fill="#e7e0d2"/><circle cx="341.2" cy="255.1" r="1.3" fill="#e7e0d2"/><circle cx="371.0" cy="180.5" r="1.6" fill="#e7e0d2"/><circle cx="271.7" cy="180.3" r="1.3" fill="#e7e0d2"/><circle cx="316.8" cy="262.4" r="1.0" fill="#e7e0d2"/><circle cx="331.7" cy="141.9" r="1.3" fill="#e7e0d2"/><circle cx="355.6" cy="245.8" r="1.3" fill="#e7e0d2"/><circle cx="333.0" cy="231.5" r="1.2" fill="#e7e0d2"/><circle cx="320.0" cy="201.6" r="39.936" fill="#e6ad5e"/><circle cx="320.0" cy="201.6" r="39.936" fill="none" stroke="rgba(0,0,0,0.10)" stroke-width="2.304"/><ellipse cx="320.0" cy="197.76" rx="47.616" ry="23.04" fill="#f3b6a0" opacity="0.92"/><circle cx="430.4" cy="215.424" r="76.8" fill="#26302a"/><circle cx="430.4" cy="215.424" r="69.12" fill="#fbfaf6"/><circle cx="430.4" cy="215.424" r="69.12" fill="none" stroke="#ece7dd" stroke-width="3.072"/><circle cx="484.3" cy="187.7" r="1.5" fill="#e7e0d2"/><circle cx="473.3" cy="240.2" r="1.1" fill="#e7e0d2"/><circle cx="395.9" cy="208.9" r="1.0" fill="#e7e0d2"/><circle cx="394.7" cy="228.4" r="1.2" fill="#e7e0d2"/><circle cx="463.8" cy="220.7" r="1.4" fill="#e7e0d2"/><circle cx="389.0" cy="237.8" r="1.4" fill="#e7e0d2"/><circle cx="409.6" cy="240.9" r="1.4" fill="#e7e0d2"/><circle cx="386.7" cy="188.1" r="1.3" fill="#e7e0d2"/><circle cx="472.0" cy="207.5" r="1.4" fill="#e7e0d2"/><circle cx="397.3" cy="251.4" r="1.3" fill="#e7e0d2"/><circle cx="417.1" cy="246.5" r="1.2" fill="#e7e0d2"/><circle cx="420.4" cy="167.0" r="1.2" fill="#e7e0d2"/><circle cx="407.3" cy="186.8" r="0.9" fill="#e7e0d2"/><circle cx="405.3" cy="266.0" r="1.0" fill="#e7e0d2"/><circle cx="430.4" cy="215.424" r="39.936" fill="#e6ad5e"/><circle cx="430.4" cy="215.424" r="39.936" fill="none" stroke="rgba(0,0,0,0.10)" stroke-width="2.304"/><ellipse cx="430.4" cy="211.584" rx="47.616" ry="23.04" fill="#f3b6a0" opacity="0.92"/><text x="320.0" y="432.0" font-family="Outfit,Arial,sans-serif" font-size="24.0" font-weight="700" fill="#1a1518" text-anchor="middle">Темпура креветка</text><text x="320.0" y="458.4" font-family="Outfit,Arial,sans-serif" font-size="15.36" letter-spacing="2" fill="#d32b2b" text-anchor="middle">РОЛЛЫ</text></svg>