<svg xmlns="http://www.w3.org/2000/svg" width="640" height="480" viewBox="0 0 640 480"><defs><radialGradient id="bg" cx="50%" cy="42%" r="70%"><stop offset="0%" stop-color="#fdf9f5"/><stop offset="100%" stop-color="#f7efe9"/></radialGradient></defs><rect width="640" height="480" fill="url(#bg)"/><ellipse cx="320.0" cy="232.32" rx="268.8" ry="124.80000000000001" fill="#e7d9d0"/><ellipse cx="320.0" cy="224.832" rx="247.29600000000002" ry="112.32000000000001" fill="#efe4dc"/><circle cx="209.60000000000002" cy="215.424" r="76.8" fill="#26302a"/><circle cx="209.60000000000002" cy="215.424" r="69.12" fill="#fbfaf6"/><circle cx="209.60000000000002" cy="215.424" r="69.12" fill="none" stroke="#ece7dd" stroke-width="3.072"/><circle cx="251.1" cy="248.3" r="1.3" fill="#e7e0d2"/><circle cx="246.3" cy="200.8" r="1.0" fill="#e7e0d2"/><circle cx="204.3" cy="164.1" r="1.0" fill="#e7e0d2"/><circle cx="192.1" cy="175.7" r="1.4" fill="#e7e0d2"/><circle cx="237.6" cy="241.2" r="1.5" fill="#e7e0d2"/><circle cx="185.0" cy="246.0" r="1.4" fill="#e7e0d2"/><circle cx="185.3" cy="189.2" r="1.2" fill="#e7e0d2"/><circle cx="190.9" cy="184.4" r="1.3" fill="#e7e0d2"/><circle cx="239.4" cy="244.5" r="0.9" fill="#e7e0d2"/><circle cx="227.0" cy="274.4" r="1.1" fill="#e7e0d2"/><circle cx="254.3" cy="212.6" r="1.3" fill="#e7e0d2"/><circle cx="246.0" cy="177.7" r="0.9" fill="#e7e0d2"/><circle cx="166.5" cy="188.5" r="0.9" fill="#e7e0d2"/><circle cx="257.9" cy="248.1" r="1.2" fill="#e7e0d2"/><circle cx="209.60000000000002" cy="215.424" r="39.936" fill="#f0936a"/><circle cx="209.60000000000002" cy="215.424" r="39.936" fill="none" stroke="rgba(0,0,0,0.10)" stroke-width="2.304"/><ellipse cx="209.60000000000002" cy="211.584" rx="47.616" ry="23.04" fill="#d9482f" opacity="0.92"/><circle cx="320.0" cy="201.6" r="76.8" fill="#26302a"/><circle cx="320.0" cy="201.6" r="69.12" fill="#fbfaf6"/><circle cx="320.0" cy="201.6" r="69.12" fill="none" stroke="#ece7dd" stroke-width="3.072"/><circle cx="350.7" cy="194.7" r="1.4" fill="#e7e0d2"/><circle cx="353.8" cy="253.3" r="0.8" fill="#e7e0d2"/><circle cx="357.9" cy="165.6" r="1.5" fill="#e7e0d2"/><circle cx="358.6" cy="201.4" r="1.1" fill="#e7e0d2"/><circle cx="309.6" cy="163.2" r="1.0" fill="#e7e0d2"/><circle cx="327.8" cy="258.9" r="1.5" fill="#e7e0d2"/><circle cx="331.1" cy="165.2" r="1.5" fill="#e7e0d2"/><circle cx="281.8" cy="198.9" r="1.2" fill="#e7e0d2"/><circle cx="290.6" cy="217.8" r="1.3" fill="#e7e0d2"/><circle cx="288.9" cy="239.3" r="1.5" fill="#e7e0d2"/><circle cx="293.3" cy="167.0" r="1.5" fill="#e7e0d2"/><circle cx="366.3" cy="200.0" r="1.6" fill="#e7e0d2"/><circle cx="355.2" cy="205.8" r="0.9" fill="#e7e0d2"/><circle cx="368.6" cy="181.5" r="1.4" fill="#e7e0d2"/><circle cx="320.0" cy="201.6" r="39.936" fill="#f0936a"/><circle cx="320.0" cy="201.6" r="39.936" fill="none" stroke="rgba(0,0,0,0.10)" stroke-width="2.304"/><ellipse cx="320.0" cy="197.76" rx="47.616" ry="23.04" fill="#d9482f" opacity="0.92"/><circle cx="430.4" cy="215.424" r="76.8" fill="#26302a"/><circle cx="430.4" cy="215.424" r="69.12" fill="#fbfaf6"/><circle cx="430.4" cy="215.424" r="69.12" fill="none" stroke="#ece7dd" stroke-width="3.072"/><circle cx="400.7" cy="250.7" r="1.1" fill="#e7e0d2"/><circle cx="389.0" cy="229.9" r="1.3" fill="#e7e0d2"/><circle cx="427.6" cy="266.2" r="0.8" fill="#e7e0d2"/><circle cx="417.1" cy="254.8" r="0.9" fill="#e7e0d2"/><circle cx="428.6" cy="174.7" r="1.4" fill="#e7e0d2"/><circle cx="467.9" cy="204.7" r="1.5" fill="#e7e0d2"/><circle cx="448.6" cy="166.9" r="0.8" fill="#e7e0d2"/><circle cx="381.7" cy="229.1" r="1.0" fill="#e7e0d2"/><circle cx="437.0" cy="255.6" r="1.0" fill="#e7e0d2"/><circle cx="440.2" cy="174.7" r="1.1" fill="#e7e0d2"/><circle cx="392.6" cy="168.1" r="1.0" fill="#e7e0d2"/><circle cx="489.5" cy="232.2" r="1.5" fill="#e7e0d2"/><circle cx="442.2" cy="169.5" r="1.0" fill="#e7e0d2"/><circle cx="453.3" cy="248.9" r="1.2" fill="#e7e0d2"/><circle cx="430.4" cy="215.424" r="39.936" fill="#f0936a"/><circle cx="430.4" cy="215.424" r="39.936" fill="none" stroke="rgba(0,0,0,0.10)" stroke-width="2.304"/><ellipse cx="430.4" cy="211.584" rx="47.616" ry="23.04" fill="#d9482f" opacity="0.92"/><text x="320.0" y="432.0" font-family="Outfit,Arial,sans-serif" font-size="24.0" font-weight="700" fill="#1a1518" text-anchor="middle">Спайси лосось</text><text x="320.0" y="458.4" font-family="Outfit,Arial,sans-serif" font-size="15.36" letter-spacing="2" fill="#d32b2b" text-anchor="middle">РОЛЛЫ</text></svg>