<svg xmlns="http://www.w3.org/2000/svg" width="640" height="480" viewBox="0 0 640 480"><defs><radialGradient id="bg" cx="50%" cy="42%" r="70%"><stop offset="0%" stop-color="#fdf9f5"/><stop offset="100%" stop-color="#f7efe9"/></radialGradient></defs><rect width="640" height="480" fill="url(#bg)"/><ellipse cx="320.0" cy="229.2" rx="294.40000000000003" ry="144.0" fill="#e7d9d0"/><ellipse cx="320.0" cy="220.56" rx="270.84800000000007" ry="129.6" fill="#efe4dc"/><circle cx="193.04000000000002" cy="179.51999999999998" r="55.2" fill="#26302a"/><circle cx="193.04000000000002" cy="179.51999999999998" r="49.68000000000001" fill="#fbfaf6"/><circle cx="193.04000000000002" cy="179.51999999999998" r="49.68000000000001" fill="none" stroke="#ece7dd" stroke-width="2.208"/><circle cx="217.4" cy="163.9" r="1.2" fill="#e7e0d2"/><circle cx="222.3" cy="213.2" r="0.9" fill="#e7e0d2"/><circle cx="176.5" cy="147.8" r="1.4" fill="#e7e0d2"/><circle cx="167.0" cy="196.0" r="1.1" fill="#e7e0d2"/><circle cx="219.5" cy="192.5" r="1.0" fill="#e7e0d2"/><circle cx="199.2" cy="147.8" r="0.9" fill="#e7e0d2"/><circle cx="222.5" cy="185.5" r="1.6" fill="#e7e0d2"/><circle cx="225.1" cy="184.7" r="1.4" fill="#e7e0d2"/><circle cx="222.3" cy="207.3" r="1.5" fill="#e7e0d2"/><circle cx="204.7" cy="157.0" r="1.5" fill="#e7e0d2"/><circle cx="198.4" cy="219.4" r="1.4" fill="#e7e0d2"/><circle cx="154.3" cy="173.9" r="1.4" fill="#e7e0d2"/><circle cx="202.2" cy="151.7" r="1.6" fill="#e7e0d2"/><circle cx="171.1" cy="158.5" r="0.9" fill="#e7e0d2"/><circle cx="193.04000000000002" cy="179.51999999999998" r="28.704000000000004" fill="#f0936a"/><circle cx="193.04000000000002" cy="179.51999999999998" r="28.704000000000004" fill="none" stroke="rgba(0,0,0,0.10)" stroke-width="1.656"/><circle cx="197.8" cy="185.6" r="3.3" fill="#e8762e"/><circle cx="195.9" cy="184.2" r="3.3" fill="#e8762e"/><circle cx="191.8" cy="176.3" r="3.3" fill="#e8762e"/><circle cx="190.4" cy="183.1" r="3.3" fill="#e8762e"/><circle cx="203.7" cy="177.8" r="3.3" fill="#e8762e"/><circle cx="189.8" cy="188.0" r="3.3" fill="#e8762e"/><circle cx="196.8" cy="172.3" r="3.3" fill="#e8762e"/><circle cx="256.52" cy="179.51999999999998" r="55.2" fill="#26302a"/><circle cx="256.52" cy="179.51999999999998" r="49.68000000000001" fill="#fbfaf6"/><circle cx="256.52" cy="179.51999999999998" r="49.68000000000001" fill="none" stroke="#ece7dd" stroke-width="2.208"/><circle cx="240.4" cy="211.9" r="0.8" fill="#e7e0d2"/><circle cx="297.0" cy="175.0" r="1.6" fill="#e7e0d2"/><circle cx="254.3" cy="206.2" r="0.8" fill="#e7e0d2"/><circle cx="264.5" cy="201.0" r="1.4" fill="#e7e0d2"/><circle cx="229.6" cy="209.9" r="1.4" fill="#e7e0d2"/><circle cx="241.3" cy="200.7" r="1.1" fill="#e7e0d2"/><circle cx="292.7" cy="186.5" r="1.0" fill="#e7e0d2"/><circle cx="281.6" cy="213.5" r="1.1" fill="#e7e0d2"/><circle cx="298.2" cy="164.7" r="1.3" fill="#e7e0d2"/><circle cx="256.6" cy="205.2" r="1.0" fill="#e7e0d2"/><circle cx="253.6" cy="145.8" r="1.0" fill="#e7e0d2"/><circle cx="286.5" cy="182.8" r="1.1" fill="#e7e0d2"/><circle cx="281.8" cy="191.3" r="1.0" fill="#e7e0d2"/><circle cx="227.7" cy="196.4" r="1.3" fill="#e7e0d2"/><circle cx="256.52" cy="179.51999999999998" r="28.704000000000004" fill="#8fb46a"/><circle cx="256.52" cy="179.51999999999998" r="28.704000000000004" fill="none" stroke="rgba(0,0,0,0.10)" stroke-width="1.656"/><circle cx="320.0" cy="179.51999999999998" r="55.2" fill="#26302a"/><circle cx="320.0" cy="179.51999999999998" r="49.68000000000001" fill="#fbfaf6"/><circle cx="320.0" cy="179.51999999999998" r="49.68000000000001" fill="none" stroke="#ece7dd" stroke-width="2.208"/><circle cx="351.9" cy="195.4" r="1.6" fill="#e7e0d2"/><circle cx="300.8" cy="208.2" r="1.1" fill="#e7e0d2"/><circle cx="317.5" cy="141.9" r="1.3" fill="#e7e0d2"/><circle cx="357.6" cy="173.7" r="1.1" fill="#e7e0d2"/><circle cx="293.4" cy="204.6" r="1.4" fill="#e7e0d2"/><circle cx="327.1" cy="219.3" r="1.2" fill="#e7e0d2"/><circle cx="323.4" cy="155.4" r="1.1" fill="#e7e0d2"/><circle cx="351.5" cy="183.1" r="1.0" fill="#e7e0d2"/><circle cx="304.4" cy="201.9" r="1.5" fill="#e7e0d2"/><circle cx="300.0" cy="156.9" r="1.2" fill="#e7e0d2"/><circle cx="337.3" cy="219.3" r="1.5" fill="#e7e0d2"/><circle cx="296.7" cy="168.4" r="1.6" fill="#e7e0d2"/><circle cx="324.9" cy="202.6" r="1.1" fill="#e7e0d2"/><circle cx="290.3" cy="208.4" r="0.9" fill="#e7e0d2"/><circle cx="320.0" cy="179.51999999999998" r="28.704000000000004" fill="#ef9d6e"/><circle cx="320.0" cy="179.51999999999998" r="28.704000000000004" fill="none" stroke="rgba(0,0,0,0.10)" stroke-width="1.656"/><circle cx="383.48" cy="179.51999999999998" r="55.2" fill="#26302a"/><circle cx="383.48" cy="179.51999999999998" r="49.68000000000001" fill="#fbfaf6"/><circle cx="383.48" cy="179.51999999999998" r="49.68000000000001" fill="none" stroke="#ece7dd" stroke-width="2.208"/><circle cx="377.3" cy="212.5" r="1.3" fill="#e7e0d2"/><circle cx="349.1" cy="188.2" r="1.2" fill="#e7e0d2"/><circle cx="356.8" cy="176.5" r="0.9" fill="#e7e0d2"/><circle cx="382.2" cy="219.3" r="0.8" fill="#e7e0d2"/><circle cx="364.5" cy="205.0" r="1.2" fill="#e7e0d2"/><circle cx="345.6" cy="196.4" r="1.5" fill="#e7e0d2"/><circle cx="359.0" cy="168.3" r="1.5" fill="#e7e0d2"/><circle cx="403.6" cy="153.7" r="1.4" fill="#e7e0d2"/><circle cx="416.0" cy="150.5" r="1.0" fill="#e7e0d2"/><circle cx="391.7" cy="219.0" r="1.0" fill="#e7e0d2"/><circle cx="379.9" cy="202.7" r="1.4" fill="#e7e0d2"/><circle cx="385.7" cy="205.6" r="1.3" fill="#e7e0d2"/><circle cx="417.9" cy="199.7" r="0.9" fill="#e7e0d2"/><circle cx="408.4" cy="175.0" r="0.9" fill="#e7e0d2"/><circle cx="383.48" cy="179.51999999999998" r="28.704000000000004" fill="#7c4a2c"/><circle cx="383.48" cy="179.51999999999998" r="28.704000000000004" fill="none" stroke="rgba(0,0,0,0.10)" stroke-width="1.656"/><circle cx="390.1" cy="188.1" r="3.3" fill="#e8762e"/><circle cx="362.1" cy="178.9" r="3.3" fill="#e8762e"/><circle cx="390.1" cy="163.4" r="3.3" fill="#e8762e"/><circle cx="382.0" cy="176.4" r="3.3" fill="#e8762e"/><circle cx="391.6" cy="174.5" r="3.3" fill="#e8762e"/><circle cx="381.6" cy="178.4" r="3.3" fill="#e8762e"/><circle cx="377.0" cy="196.9" r="3.3" fill="#e8762e"/><circle cx="446.96" cy="179.51999999999998" r="55.2" fill="#26302a"/><circle cx="446.96" cy="179.51999999999998" r="49.68000000000001" fill="#fbfaf6"/><circle cx="446.96" cy="179.51999999999998" r="49.68000000000001" fill="none" stroke="#ece7dd" stroke-width="2.208"/><circle cx="468.4" cy="153.3" r="0.9" fill="#e7e0d2"/><circle cx="468.2" cy="199.6" r="1.5" fill="#e7e0d2"/><circle cx="474.5" cy="167.2" r="1.2" fill="#e7e0d2"/><circle cx="405.5" cy="191.1" r="1.2" fill="#e7e0d2"/><circle cx="434.0" cy="210.5" r="0.8" fill="#e7e0d2"/><circle cx="421.9" cy="177.3" r="1.5" fill="#e7e0d2"/><circle cx="406.5" cy="196.1" r="1.1" fill="#e7e0d2"/><circle cx="441.6" cy="223.8" r="1.5" fill="#e7e0d2"/><circle cx="491.3" cy="179.5" r="1.5" fill="#e7e0d2"/><circle cx="478.2" cy="163.7" r="1.4" fill="#e7e0d2"/><circle cx="440.6" cy="150.4" r="0.8" fill="#e7e0d2"/><circle cx="430.9" cy="138.9" r="0.9" fill="#e7e0d2"/><circle cx="435.2" cy="148.3" r="1.1" fill="#e7e0d2"/><circle cx="435.3" cy="145.7" r="1.4" fill="#e7e0d2"/><circle cx="446.96" cy="179.51999999999998" r="28.704000000000004" fill="#f3b6a0"/><circle cx="446.96" cy="179.51999999999998" r="28.704000000000004" fill="none" stroke="rgba(0,0,0,0.10)" stroke-width="1.656"/><circle cx="224.78" cy="248.51999999999998" r="55.2" fill="#26302a"/><circle cx="224.78" cy="248.51999999999998" r="49.68000000000001" fill="#fbfaf6"/><circle cx="224.78" cy="248.51999999999998" r="49.68000000000001" fill="none" stroke="#ece7dd" stroke-width="2.208"/><circle cx="194.2" cy="258.3" r="0.8" fill="#e7e0d2"/><circle cx="228.8" cy="211.3" r="1.3" fill="#e7e0d2"/><circle cx="187.9" cy="255.0" r="1.5" fill="#e7e0d2"/><circle cx="214.0" cy="220.4" r="1.5" fill="#e7e0d2"/><circle cx="214.9" cy="270.6" r="1.0" fill="#e7e0d2"/><circle cx="183.2" cy="249.5" r="1.1" fill="#e7e0d2"/><circle cx="209.8" cy="224.5" r="0.8" fill="#e7e0d2"/><circle cx="259.5" cy="243.1" r="1.2" fill="#e7e0d2"/><circle cx="213.4" cy="225.9" r="1.5" fill="#e7e0d2"/><circle cx="210.7" cy="290.0" r="0.9" fill="#e7e0d2"/><circle cx="196.3" cy="255.3" r="1.3" fill="#e7e0d2"/><circle cx="246.7" cy="257.3" r="1.1" fill="#e7e0d2"/><circle cx="262.7" cy="262.9" r="0.9" fill="#e7e0d2"/><circle cx="212.8" cy="280.4" r="0.9" fill="#e7e0d2"/><circle cx="224.78" cy="248.51999999999998" r="28.704000000000004" fill="#f0936a"/><circle cx="224.78" cy="248.51999999999998" r="28.704000000000004" fill="none" stroke="rgba(0,0,0,0.10)" stroke-width="1.656"/><circle cx="288.26" cy="248.51999999999998" r="55.2" fill="#26302a"/><circle cx="288.26" cy="248.51999999999998" r="49.68000000000001" fill="#fbfaf6"/><circle cx="288.26" cy="248.51999999999998" r="49.68000000000001" fill="none" stroke="#ece7dd" stroke-width="2.208"/><circle cx="258.3" cy="280.2" r="1.0" fill="#e7e0d2"/><circle cx="279.1" cy="278.9" r="1.0" fill="#e7e0d2"/><circle cx="275.2" cy="287.6" r="1.2" fill="#e7e0d2"/><circle cx="324.0" cy="269.1" r="1.0" fill="#e7e0d2"/><circle cx="294.0" cy="225.5" r="1.3" fill="#e7e0d2"/><circle cx="257.9" cy="229.3" r="1.6" fill="#e7e0d2"/><circle cx="286.8" cy="218.8" r="1.2" fill="#e7e0d2"/><circle cx="321.8" cy="262.7" r="1.1" fill="#e7e0d2"/><circle cx="317.9" cy="270.0" r="1.4" fill="#e7e0d2"/><circle cx="320.9" cy="268.5" r="1.3" fill="#e7e0d2"/><circle cx="318.8" cy="272.3" r="0.9" fill="#e7e0d2"/><circle cx="328.3" cy="253.5" r="1.5" fill="#e7e0d2"/><circle cx="244.3" cy="248.7" r="1.3" fill="#e7e0d2"/><circle cx="312.0" cy="226.6" r="1.1" fill="#e7e0d2"/><circle cx="288.26" cy="248.51999999999998" r="28.704000000000004" fill="#8fb46a"/><circle cx="288.26" cy="248.51999999999998" r="28.704000000000004" fill="none" stroke="rgba(0,0,0,0.10)" stroke-width="1.656"/><circle cx="292.5" cy="261.4" r="3.3" fill="#e8762e"/><circle cx="303.9" cy="261.0" r="3.3" fill="#e8762e"/><circle cx="291.9" cy="258.0" r="3.3" fill="#e8762e"/><circle cx="290.9" cy="228.6" r="3.3" fill="#e8762e"/><circle cx="275.2" cy="241.1" r="3.3" fill="#e8762e"/><circle cx="270.1" cy="244.3" r="3.3" fill="#e8762e"/><circle cx="290.7" cy="263.4" r="3.3" fill="#e8762e"/><circle cx="351.74" cy="248.51999999999998" r="55.2" fill="#26302a"/><circle cx="351.74" cy="248.51999999999998" r="49.68000000000001" fill="#fbfaf6"/><circle cx="351.74" cy="248.51999999999998" r="49.68000000000001" fill="none" stroke="#ece7dd" stroke-width="2.208"/><circle cx="360.7" cy="220.3" r="1.0" fill="#e7e0d2"/><circle cx="362.7" cy="226.1" r="1.2" fill="#e7e0d2"/><circle cx="318.1" cy="235.8" r="0.9" fill="#e7e0d2"/><circle cx="328.8" cy="224.0" r="1.5" fill="#e7e0d2"/><circle cx="394.8" cy="256.3" r="0.9" fill="#e7e0d2"/><circle cx="364.7" cy="217.4" r="1.5" fill="#e7e0d2"/><circle cx="363.8" cy="275.5" r="0.9" fill="#e7e0d2"/><circle cx="357.8" cy="214.8" r="1.0" fill="#e7e0d2"/><circle cx="360.4" cy="271.1" r="1.0" fill="#e7e0d2"/><circle cx="321.8" cy="236.7" r="1.4" fill="#e7e0d2"/><circle cx="388.2" cy="267.5" r="1.6" fill="#e7e0d2"/><circle cx="349.1" cy="209.6" r="1.5" fill="#e7e0d2"/><circle cx="378.8" cy="266.9" r="0.9" fill="#e7e0d2"/><circle cx="358.4" cy="214.8" r="0.9" fill="#e7e0d2"/><circle cx="351.74" cy="248.51999999999998" r="28.704000000000004" fill="#ef9d6e"/><circle cx="351.74" cy="248.51999999999998" r="28.704000000000004" fill="none" stroke="rgba(0,0,0,0.10)" stroke-width="1.656"/><circle cx="415.22" cy="248.51999999999998" r="55.2" fill="#26302a"/><circle cx="415.22" cy="248.51999999999998" r="49.68000000000001" fill="#fbfaf6"/><circle cx="415.22" cy="248.51999999999998" r="49.68000000000001" fill="none" stroke="#ece7dd" stroke-width="2.208"/><circle cx="424.8" cy="226.0" r="1.5" fill="#e7e0d2"/><circle cx="411.7" cy="220.6" r="1.1" fill="#e7e0d2"/><circle cx="440.3" cy="254.0" r="1.3" fill="#e7e0d2"/><circle cx="418.8" cy="222.2" r="1.4" fill="#e7e0d2"/><circle cx="390.2" cy="272.4" r="1.5" fill="#e7e0d2"/><circle cx="417.6" cy="274.7" r="1.1" fill="#e7e0d2"/><circle cx="446.3" cy="244.0" r="1.5" fill="#e7e0d2"/><circle cx="433.1" cy="283.4" r="1.5" fill="#e7e0d2"/><circle cx="397.4" cy="268.8" r="0.9" fill="#e7e0d2"/><circle cx="433.0" cy="271.2" r="1.3" fill="#e7e0d2"/><circle cx="434.9" cy="228.5" r="1.5" fill="#e7e0d2"/><circle cx="431.9" cy="277.6" r="1.4" fill="#e7e0d2"/><circle cx="450.0" cy="223.7" r="1.6" fill="#e7e0d2"/><circle cx="451.4" cy="269.3" r="0.8" fill="#e7e0d2"/><circle cx="415.22" cy="248.51999999999998" r="28.704000000000004" fill="#7c4a2c"/><circle cx="415.22" cy="248.51999999999998" r="28.704000000000004" fill="none" stroke="rgba(0,0,0,0.10)" stroke-width="1.656"/><text x="320.0" y="432.0" font-family="Outfit,Arial,sans-serif" font-size="24.0" font-weight="700" fill="#1a1518" text-anchor="middle">Сет «Большой 8»</text><text x="320.0" y="458.4" font-family="Outfit,Arial,sans-serif" font-size="15.36" letter-spacing="2" fill="#d32b2b" text-anchor="middle">СЕТЫ</text></svg>