<svg xmlns="http://www.w3.org/2000/svg" width="640" height="480" viewBox="0 0 640 480"><defs><radialGradient id="bg" cx="50%" cy="42%" r="70%"><stop offset="0%" stop-color="#fdf9f5"/><stop offset="100%" stop-color="#f7efe9"/></radialGradient></defs><rect width="640" height="480" fill="url(#bg)"/><ellipse cx="320.0" cy="232.32" rx="268.8" ry="124.80000000000001" fill="#e7d9d0"/><ellipse cx="320.0" cy="224.832" rx="247.29600000000002" ry="112.32000000000001" fill="#efe4dc"/><circle cx="209.60000000000002" cy="215.424" r="76.8" fill="#26302a"/><circle cx="209.60000000000002" cy="215.424" r="69.12" fill="#fbfaf6"/><circle cx="209.60000000000002" cy="215.424" r="69.12" fill="none" stroke="#ece7dd" stroke-width="3.072"/><circle cx="157.7" cy="199.1" r="1.4" fill="#e7e0d2"/><circle cx="236.0" cy="185.4" r="1.6" fill="#e7e0d2"/><circle cx="159.9" cy="193.4" r="1.4" fill="#e7e0d2"/><circle cx="245.3" cy="198.3" r="1.1" fill="#e7e0d2"/><circle cx="199.4" cy="167.2" r="1.4" fill="#e7e0d2"/><circle cx="169.6" cy="261.3" r="0.8" fill="#e7e0d2"/><circle cx="201.9" cy="173.4" r="0.8" fill="#e7e0d2"/><circle cx="194.7" cy="186.3" r="1.0" fill="#e7e0d2"/><circle cx="193.3" cy="247.5" r="0.9" fill="#e7e0d2"/><circle cx="261.0" cy="241.0" r="0.9" fill="#e7e0d2"/><circle cx="227.4" cy="243.8" r="1.5" fill="#e7e0d2"/><circle cx="155.2" cy="199.4" r="1.6" fill="#e7e0d2"/><circle cx="166.2" cy="216.8" r="1.1" fill="#e7e0d2"/><circle cx="205.1" cy="264.8" r="1.6" fill="#e7e0d2"/><circle cx="209.60000000000002" cy="215.424" r="39.936" fill="#8fb46a"/><circle cx="209.60000000000002" cy="215.424" r="39.936" fill="none" stroke="rgba(0,0,0,0.10)" stroke-width="2.304"/><circle cx="320.0" cy="201.6" r="76.8" fill="#26302a"/><circle cx="320.0" cy="201.6" r="69.12" fill="#fbfaf6"/><circle cx="320.0" cy="201.6" r="69.12" fill="none" stroke="#ece7dd" stroke-width="3.072"/><circle cx="290.8" cy="255.9" r="1.6" fill="#e7e0d2"/><circle cx="368.4" cy="174.1" r="1.5" fill="#e7e0d2"/><circle cx="370.6" cy="201.7" r="1.0" fill="#e7e0d2"/><circle cx="314.4" cy="157.4" r="1.2" fill="#e7e0d2"/><circle cx="272.7" cy="188.7" r="1.5" fill="#e7e0d2"/><circle cx="361.6" cy="196.6" r="1.4" fill="#e7e0d2"/><circle cx="353.2" cy="173.8" r="0.9" fill="#e7e0d2"/><circle cx="265.1" cy="202.6" r="1.2" fill="#e7e0d2"/><circle cx="341.3" cy="250.2" r="1.1" fill="#e7e0d2"/><circle cx="347.4" cy="177.7" r="1.3" fill="#e7e0d2"/><circle cx="273.6" cy="242.3" r="0.9" fill="#e7e0d2"/><circle cx="352.1" cy="171.3" r="1.1" fill="#e7e0d2"/><circle cx="332.1" cy="246.5" r="1.5" fill="#e7e0d2"/><circle cx="380.3" cy="201.2" r="1.3" fill="#e7e0d2"/><circle cx="320.0" cy="201.6" r="39.936" fill="#8fb46a"/><circle cx="320.0" cy="201.6" r="39.936" fill="none" stroke="rgba(0,0,0,0.10)" stroke-width="2.304"/><circle cx="430.4" cy="215.424" r="76.8" fill="#26302a"/><circle cx="430.4" cy="215.424" r="69.12" fill="#fbfaf6"/><circle cx="430.4" cy="215.424" r="69.12" fill="none" stroke="#ece7dd" stroke-width="3.072"/><circle cx="416.3" cy="184.6" r="1.3" fill="#e7e0d2"/><circle cx="461.4" cy="167.5" r="1.2" fill="#e7e0d2"/><circle cx="401.4" cy="184.2" r="1.2" fill="#e7e0d2"/><circle cx="471.2" cy="248.2" r="1.3" fill="#e7e0d2"/><circle cx="421.9" cy="257.5" r="1.4" fill="#e7e0d2"/><circle cx="373.2" cy="236.6" r="1.6" fill="#e7e0d2"/><circle cx="448.2" cy="186.5" r="0.9" fill="#e7e0d2"/><circle cx="420.3" cy="256.5" r="1.4" fill="#e7e0d2"/><circle cx="452.9" cy="172.3" r="1.3" fill="#e7e0d2"/><circle cx="401.5" cy="201.2" r="1.2" fill="#e7e0d2"/><circle cx="440.5" cy="258.3" r="0.8" fill="#e7e0d2"/><circle cx="397.1" cy="166.2" r="0.9" fill="#e7e0d2"/><circle cx="402.5" cy="200.1" r="1.1" fill="#e7e0d2"/><circle cx="461.7" cy="264.1" r="1.4" fill="#e7e0d2"/><circle cx="430.4" cy="215.424" r="39.936" fill="#8fb46a"/><circle cx="430.4" cy="215.424" r="39.936" fill="none" stroke="rgba(0,0,0,0.10)" stroke-width="2.304"/><text x="320.0" y="432.0" font-family="Outfit,Arial,sans-serif" font-size="24.0" font-weight="700" fill="#1a1518" text-anchor="middle">Авокадо</text><text x="320.0" y="458.4" font-family="Outfit,Arial,sans-serif" font-size="15.36" letter-spacing="2" fill="#d32b2b" text-anchor="middle">РОЛЛЫ</text></svg>