<svg xmlns="http://www.w3.org/2000/svg" width="900" height="600" viewBox="0 0 900 600"><defs><radialGradient id="bg" cx="50%" cy="42%" r="70%"><stop offset="0%" stop-color="#fdf9f5"/><stop offset="100%" stop-color="#f7efe9"/></radialGradient></defs><rect width="900" height="600" fill="url(#bg)"/><ellipse cx="450.0" cy="286.5" rx="414.0" ry="180.0" fill="#e7d9d0"/><ellipse cx="450.0" cy="275.7" rx="380.88" ry="162.0" fill="#efe4dc"/><circle cx="291.3" cy="224.4" r="69.0" fill="#26302a"/><circle cx="291.3" cy="224.4" r="62.1" fill="#fbfaf6"/><circle cx="291.3" cy="224.4" r="62.1" fill="none" stroke="#ece7dd" stroke-width="2.7600000000000002"/><circle cx="245.6" cy="231.8" r="1.3" fill="#e7e0d2"/><circle cx="309.0" cy="246.4" r="1.1" fill="#e7e0d2"/><circle cx="283.7" cy="274.4" r="1.4" fill="#e7e0d2"/><circle cx="256.3" cy="198.6" r="1.3" fill="#e7e0d2"/><circle cx="315.9" cy="256.2" r="0.9" fill="#e7e0d2"/><circle cx="315.8" cy="207.8" r="1.5" fill="#e7e0d2"/><circle cx="333.4" cy="245.7" r="1.1" fill="#e7e0d2"/><circle cx="248.8" cy="253.5" r="0.8" fill="#e7e0d2"/><circle cx="341.0" cy="244.3" r="1.2" fill="#e7e0d2"/><circle cx="338.0" cy="254.4" r="1.6" fill="#e7e0d2"/><circle cx="321.5" cy="250.2" r="0.9" fill="#e7e0d2"/><circle cx="274.0" cy="266.3" r="0.9" fill="#e7e0d2"/><circle cx="281.6" cy="196.7" r="0.9" fill="#e7e0d2"/><circle cx="306.9" cy="188.5" r="1.1" fill="#e7e0d2"/><circle cx="291.3" cy="224.4" r="35.88" fill="#f0936a"/><circle cx="291.3" cy="224.4" r="35.88" fill="none" stroke="rgba(0,0,0,0.10)" stroke-width="2.07"/><circle cx="301.0" cy="240.8" r="4.1" fill="#e8762e"/><circle cx="282.5" cy="214.5" r="4.1" fill="#e8762e"/><circle cx="296.0" cy="245.8" r="4.1" fill="#e8762e"/><circle cx="296.3" cy="211.2" r="4.1" fill="#e8762e"/><circle cx="284.8" cy="224.2" r="4.1" fill="#e8762e"/><circle cx="301.5" cy="224.6" r="4.1" fill="#e8762e"/><circle cx="289.7" cy="223.4" r="4.1" fill="#e8762e"/><circle cx="370.65" cy="224.4" r="69.0" fill="#26302a"/><circle cx="370.65" cy="224.4" r="62.1" fill="#fbfaf6"/><circle cx="370.65" cy="224.4" r="62.1" fill="none" stroke="#ece7dd" stroke-width="2.7600000000000002"/><circle cx="368.0" cy="271.4" r="1.3" fill="#e7e0d2"/><circle cx="389.9" cy="197.5" r="1.0" fill="#e7e0d2"/><circle cx="391.3" cy="251.7" r="1.4" fill="#e7e0d2"/><circle cx="399.9" cy="255.6" r="1.0" fill="#e7e0d2"/><circle cx="359.6" cy="262.9" r="1.5" fill="#e7e0d2"/><circle cx="348.6" cy="206.6" r="1.0" fill="#e7e0d2"/><circle cx="402.3" cy="266.0" r="1.4" fill="#e7e0d2"/><circle cx="388.1" cy="176.4" r="1.4" fill="#e7e0d2"/><circle cx="418.2" cy="208.6" r="1.0" fill="#e7e0d2"/><circle cx="395.0" cy="190.7" r="1.4" fill="#e7e0d2"/><circle cx="333.9" cy="208.8" r="1.1" fill="#e7e0d2"/><circle cx="337.5" cy="240.1" r="0.9" fill="#e7e0d2"/><circle cx="391.8" cy="178.8" r="1.6" fill="#e7e0d2"/><circle cx="354.8" cy="184.0" r="1.4" fill="#e7e0d2"/><circle cx="370.65" cy="224.4" r="35.88" fill="#8fb46a"/><circle cx="370.65" cy="224.4" r="35.88" fill="none" stroke="rgba(0,0,0,0.10)" stroke-width="2.07"/><circle cx="450.0" cy="224.4" r="69.0" fill="#26302a"/><circle cx="450.0" cy="224.4" r="62.1" fill="#fbfaf6"/><circle cx="450.0" cy="224.4" r="62.1" fill="none" stroke="#ece7dd" stroke-width="2.7600000000000002"/><circle cx="487.3" cy="254.0" r="1.3" fill="#e7e0d2"/><circle cx="483.0" cy="211.3" r="1.0" fill="#e7e0d2"/><circle cx="445.3" cy="178.3" r="1.0" fill="#e7e0d2"/><circle cx="434.2" cy="188.7" r="1.4" fill="#e7e0d2"/><circle cx="475.2" cy="247.5" r="1.5" fill="#e7e0d2"/><circle cx="427.9" cy="251.8" r="1.4" fill="#e7e0d2"/><circle cx="428.2" cy="200.8" r="1.2" fill="#e7e0d2"/><circle cx="433.2" cy="196.5" r="1.3" fill="#e7e0d2"/><circle cx="476.8" cy="250.5" r="0.9" fill="#e7e0d2"/><circle cx="465.6" cy="277.4" r="1.1" fill="#e7e0d2"/><circle cx="490.1" cy="221.9" r="1.3" fill="#e7e0d2"/><circle cx="482.7" cy="190.5" r="0.9" fill="#e7e0d2"/><circle cx="411.3" cy="200.2" r="0.9" fill="#e7e0d2"/><circle cx="493.4" cy="253.7" r="1.2" fill="#e7e0d2"/><circle cx="450.0" cy="224.4" r="35.88" fill="#ef9d6e"/><circle cx="450.0" cy="224.4" r="35.88" fill="none" stroke="rgba(0,0,0,0.10)" stroke-width="2.07"/><circle cx="529.35" cy="224.4" r="69.0" fill="#26302a"/><circle cx="529.35" cy="224.4" r="62.1" fill="#fbfaf6"/><circle cx="529.35" cy="224.4" r="62.1" fill="none" stroke="#ece7dd" stroke-width="2.7600000000000002"/><circle cx="556.9" cy="218.2" r="1.4" fill="#e7e0d2"/><circle cx="559.7" cy="270.9" r="0.8" fill="#e7e0d2"/><circle cx="563.4" cy="192.0" r="1.5" fill="#e7e0d2"/><circle cx="564.0" cy="224.2" r="1.1" fill="#e7e0d2"/><circle cx="520.0" cy="189.9" r="1.0" fill="#e7e0d2"/><circle cx="536.3" cy="275.8" r="1.5" fill="#e7e0d2"/><circle cx="539.3" cy="191.7" r="1.5" fill="#e7e0d2"/><circle cx="495.0" cy="222.0" r="1.2" fill="#e7e0d2"/><circle cx="503.0" cy="239.0" r="1.3" fill="#e7e0d2"/><circle cx="501.4" cy="258.2" r="1.5" fill="#e7e0d2"/><circle cx="505.3" cy="193.3" r="1.5" fill="#e7e0d2"/><circle cx="571.0" cy="223.0" r="1.6" fill="#e7e0d2"/><circle cx="561.0" cy="228.1" r="0.9" fill="#e7e0d2"/><circle cx="573.0" cy="206.3" r="1.4" fill="#e7e0d2"/><circle cx="529.35" cy="224.4" r="35.88" fill="#7c4a2c"/><circle cx="529.35" cy="224.4" r="35.88" fill="none" stroke="rgba(0,0,0,0.10)" stroke-width="2.07"/><circle cx="523.9" cy="201.9" r="4.1" fill="#e8762e"/><circle cx="540.7" cy="249.5" r="4.1" fill="#e8762e"/><circle cx="535.7" cy="241.8" r="4.1" fill="#e8762e"/><circle cx="546.9" cy="235.8" r="4.1" fill="#e8762e"/><circle cx="540.7" cy="240.3" r="4.1" fill="#e8762e"/><circle cx="525.9" cy="203.5" r="4.1" fill="#e8762e"/><circle cx="507.1" cy="233.0" r="4.1" fill="#e8762e"/><circle cx="608.7" cy="224.4" r="69.0" fill="#26302a"/><circle cx="608.7" cy="224.4" r="62.1" fill="#fbfaf6"/><circle cx="608.7" cy="224.4" r="62.1" fill="none" stroke="#ece7dd" stroke-width="2.7600000000000002"/><circle cx="582.1" cy="256.1" r="1.1" fill="#e7e0d2"/><circle cx="571.5" cy="237.4" r="1.3" fill="#e7e0d2"/><circle cx="606.2" cy="270.0" r="0.8" fill="#e7e0d2"/><circle cx="596.8" cy="259.7" r="0.9" fill="#e7e0d2"/><circle cx="607.1" cy="187.8" r="1.4" fill="#e7e0d2"/><circle cx="642.4" cy="214.8" r="1.5" fill="#e7e0d2"/><circle cx="625.1" cy="180.8" r="0.8" fill="#e7e0d2"/><circle cx="564.9" cy="236.7" r="1.0" fill="#e7e0d2"/><circle cx="614.6" cy="260.5" r="1.0" fill="#e7e0d2"/><circle cx="617.5" cy="187.8" r="1.1" fill="#e7e0d2"/><circle cx="574.7" cy="181.9" r="1.0" fill="#e7e0d2"/><circle cx="661.8" cy="239.5" r="1.5" fill="#e7e0d2"/><circle cx="619.3" cy="183.2" r="1.0" fill="#e7e0d2"/><circle cx="629.3" cy="254.5" r="1.2" fill="#e7e0d2"/><circle cx="608.7" cy="224.4" r="35.88" fill="#f0936a"/><circle cx="608.7" cy="224.4" r="35.88" fill="none" stroke="rgba(0,0,0,0.10)" stroke-width="2.07"/><circle cx="330.975" cy="310.65" r="69.0" fill="#26302a"/><circle cx="330.975" cy="310.65" r="62.1" fill="#fbfaf6"/><circle cx="330.975" cy="310.65" r="62.1" fill="none" stroke="#ece7dd" stroke-width="2.7600000000000002"/><circle cx="281.0" cy="303.8" r="1.6" fill="#e7e0d2"/><circle cx="318.9" cy="358.5" r="1.4" fill="#e7e0d2"/><circle cx="314.5" cy="284.3" r="0.8" fill="#e7e0d2"/><circle cx="294.6" cy="343.2" r="1.0" fill="#e7e0d2"/><circle cx="294.2" cy="310.3" r="1.5" fill="#e7e0d2"/><circle cx="367.8" cy="297.3" r="1.6" fill="#e7e0d2"/><circle cx="377.8" cy="329.9" r="1.5" fill="#e7e0d2"/><circle cx="358.8" cy="349.4" r="1.2" fill="#e7e0d2"/><circle cx="363.4" cy="301.2" r="1.2" fill="#e7e0d2"/><circle cx="364.8" cy="279.7" r="1.0" fill="#e7e0d2"/><circle cx="378.2" cy="337.3" r="1.2" fill="#e7e0d2"/><circle cx="362.9" cy="309.8" r="1.4" fill="#e7e0d2"/><circle cx="351.7" cy="261.1" r="0.8" fill="#e7e0d2"/><circle cx="310.6" cy="331.8" r="1.4" fill="#e7e0d2"/><circle cx="330.975" cy="310.65" r="35.88" fill="#8fb46a"/><circle cx="330.975" cy="310.65" r="35.88" fill="none" stroke="rgba(0,0,0,0.10)" stroke-width="2.07"/><circle cx="410.325" cy="310.65" r="69.0" fill="#26302a"/><circle cx="410.325" cy="310.65" r="62.1" fill="#fbfaf6"/><circle cx="410.325" cy="310.65" r="62.1" fill="none" stroke="#ece7dd" stroke-width="2.7600000000000002"/><circle cx="429.8" cy="352.8" r="1.1" fill="#e7e0d2"/><circle cx="423.7" cy="350.1" r="1.2" fill="#e7e0d2"/><circle cx="369.9" cy="315.9" r="1.0" fill="#e7e0d2"/><circle cx="409.2" cy="357.9" r="1.1" fill="#e7e0d2"/><circle cx="387.5" cy="266.2" r="1.5" fill="#e7e0d2"/><circle cx="442.7" cy="298.7" r="1.0" fill="#e7e0d2"/><circle cx="406.0" cy="266.8" r="1.0" fill="#e7e0d2"/><circle cx="387.2" cy="263.7" r="1.5" fill="#e7e0d2"/><circle cx="418.0" cy="346.1" r="0.8" fill="#e7e0d2"/><circle cx="444.0" cy="305.4" r="1.4" fill="#e7e0d2"/><circle cx="367.0" cy="300.2" r="1.2" fill="#e7e0d2"/><circle cx="430.7" cy="270.8" r="1.0" fill="#e7e0d2"/><circle cx="441.3" cy="337.9" r="1.5" fill="#e7e0d2"/><circle cx="439.1" cy="347.9" r="1.3" fill="#e7e0d2"/><circle cx="410.325" cy="310.65" r="35.88" fill="#ef9d6e"/><circle cx="410.325" cy="310.65" r="35.88" fill="none" stroke="rgba(0,0,0,0.10)" stroke-width="2.07"/><circle cx="398.8" cy="295.1" r="4.1" fill="#e8762e"/><circle cx="415.5" cy="309.2" r="4.1" fill="#e8762e"/><circle cx="431.2" cy="319.7" r="4.1" fill="#e8762e"/><circle cx="405.2" cy="319.6" r="4.1" fill="#e8762e"/><circle cx="412.3" cy="306.0" r="4.1" fill="#e8762e"/><circle cx="421.7" cy="303.3" r="4.1" fill="#e8762e"/><circle cx="433.2" cy="321.6" r="4.1" fill="#e8762e"/><circle cx="489.675" cy="310.65" r="69.0" fill="#26302a"/><circle cx="489.675" cy="310.65" r="62.1" fill="#fbfaf6"/><circle cx="489.675" cy="310.65" r="62.1" fill="none" stroke="#ece7dd" stroke-width="2.7600000000000002"/><circle cx="467.5" cy="266.0" r="1.2" fill="#e7e0d2"/><circle cx="450.8" cy="307.9" r="1.6" fill="#e7e0d2"/><circle cx="481.8" cy="341.8" r="1.0" fill="#e7e0d2"/><circle cx="487.3" cy="347.7" r="1.0" fill="#e7e0d2"/><circle cx="518.6" cy="333.8" r="1.0" fill="#e7e0d2"/><circle cx="459.2" cy="296.6" r="0.9" fill="#e7e0d2"/><circle cx="502.4" cy="351.8" r="1.1" fill="#e7e0d2"/><circle cx="484.3" cy="260.5" r="1.1" fill="#e7e0d2"/><circle cx="528.9" cy="338.9" r="1.4" fill="#e7e0d2"/><circle cx="452.9" cy="338.9" r="1.0" fill="#e7e0d2"/><circle cx="533.7" cy="284.4" r="1.4" fill="#e7e0d2"/><circle cx="522.7" cy="300.7" r="1.2" fill="#e7e0d2"/><circle cx="483.7" cy="260.7" r="1.1" fill="#e7e0d2"/><circle cx="519.0" cy="345.4" r="0.9" fill="#e7e0d2"/><circle cx="489.675" cy="310.65" r="35.88" fill="#7c4a2c"/><circle cx="489.675" cy="310.65" r="35.88" fill="none" stroke="rgba(0,0,0,0.10)" stroke-width="2.07"/><circle cx="569.025" cy="310.65" r="69.0" fill="#26302a"/><circle cx="569.025" cy="310.65" r="62.1" fill="#fbfaf6"/><circle cx="569.025" cy="310.65" r="62.1" fill="none" stroke="#ece7dd" stroke-width="2.7600000000000002"/><circle cx="608.0" cy="284.2" r="1.4" fill="#e7e0d2"/><circle cx="598.0" cy="290.7" r="1.3" fill="#e7e0d2"/><circle cx="612.2" cy="281.1" r="1.3" fill="#e7e0d2"/><circle cx="588.2" cy="345.1" r="1.6" fill="#e7e0d2"/><circle cx="598.4" cy="332.9" r="1.6" fill="#e7e0d2"/><circle cx="537.0" cy="321.3" r="1.1" fill="#e7e0d2"/><circle cx="600.3" cy="290.3" r="1.1" fill="#e7e0d2"/><circle cx="533.9" cy="274.4" r="1.2" fill="#e7e0d2"/><circle cx="607.4" cy="332.2" r="0.8" fill="#e7e0d2"/><circle cx="596.6" cy="329.3" r="1.4" fill="#e7e0d2"/><circle cx="559.2" cy="356.9" r="0.9" fill="#e7e0d2"/><circle cx="590.2" cy="329.9" r="1.4" fill="#e7e0d2"/><circle cx="590.5" cy="284.2" r="1.0" fill="#e7e0d2"/><circle cx="614.8" cy="314.4" r="1.0" fill="#e7e0d2"/><circle cx="569.025" cy="310.65" r="35.88" fill="#f0936a"/><circle cx="569.025" cy="310.65" r="35.88" fill="none" stroke="rgba(0,0,0,0.10)" stroke-width="2.07"/><text x="450.0" y="540.0" font-family="Outfit,Arial,sans-serif" font-size="30.0" font-weight="700" fill="#1a1518" text-anchor="middle">Стол на компанию</text><text x="450.0" y="573.0" font-family="Outfit,Arial,sans-serif" font-size="19.2" letter-spacing="2" fill="#d32b2b" text-anchor="middle">АКЦИИ</text></svg>